%TF.GenerationSoftware,KiCad,Pcbnew,7.0.11-7.0.11~ubuntu22.04.1*%
%TF.CreationDate,2024-03-24T21:47:42+11:00*%
%TF.ProjectId,esp32_pwm_fan,65737033-325f-4707-976d-5f66616e2e6b,rev?*%
%TF.SameCoordinates,Original*%
%TF.FileFunction,Soldermask,Bot*%
%TF.FilePolarity,Negative*%
%FSLAX46Y46*%
G04 Gerber Fmt 4.6, Leading zero omitted, Abs format (unit mm)*
G04 Created by KiCad (PCBNEW 7.0.11-7.0.11~ubuntu22.04.1) date 2024-03-24 21:47:42*
%MOMM*%
%LPD*%
G01*
G04 APERTURE LIST*
%ADD10R,2.200000X2.200000*%
%ADD11C,2.200000*%
%ADD12R,1.524000X1.524000*%
%ADD13C,1.524000*%
%ADD14R,1.700000X1.700000*%
%ADD15O,1.700000X1.700000*%
G04 APERTURE END LIST*
D10*
%TO.C,J1*%
X116170000Y-49930000D03*
D11*
X116170000Y-52470000D03*
X116170000Y-55010000D03*
X116170000Y-57550000D03*
%TD*%
D12*
%TO.C,U2*%
X77325000Y-55025000D03*
D13*
X77325000Y-57565000D03*
X77325000Y-60105000D03*
X77325000Y-62645000D03*
X77325000Y-65185000D03*
X77325000Y-67725000D03*
X77325000Y-70265000D03*
X77325000Y-72805000D03*
X77325000Y-75345000D03*
X77325000Y-77885000D03*
X77325000Y-80425000D03*
X77325000Y-82965000D03*
X77325000Y-85505000D03*
X77325000Y-88045000D03*
X77325000Y-90585000D03*
X102725000Y-90585000D03*
X102725000Y-88045000D03*
X102725000Y-85505000D03*
X102725000Y-82965000D03*
X102725000Y-80425000D03*
X102725000Y-77885000D03*
X102725000Y-75345000D03*
X102725000Y-72805000D03*
X102725000Y-70265000D03*
X102725000Y-67725000D03*
X102725000Y-65185000D03*
X102725000Y-62645000D03*
X102725000Y-60105000D03*
X102725000Y-57565000D03*
X102725000Y-55025000D03*
%TD*%
D14*
%TO.C,J3*%
X115775000Y-89450000D03*
D15*
X115775000Y-91990000D03*
X115775000Y-94530000D03*
X115775000Y-97070000D03*
%TD*%
D10*
%TO.C,J2*%
X116140000Y-62050000D03*
D11*
X116140000Y-64590000D03*
X116140000Y-67130000D03*
X116140000Y-69670000D03*
%TD*%
M02*
