M48
; DRILL file {KiCad 7.0.11-7.0.11~ubuntu22.04.1} date Sun 24 Mar 2024 21:48:54
; FORMAT={-:-/ absolute / metric / decimal}
; #@! TF.CreationDate,2024-03-24T21:48:54+11:00
; #@! TF.GenerationSoftware,Kicad,Pcbnew,7.0.11-7.0.11~ubuntu22.04.1
; #@! TF.FileFunction,Plated,1,2,PTH
FMAT,2
METRIC
; #@! TA.AperFunction,Plated,PTH,ComponentDrill
T1C0.762
; #@! TA.AperFunction,Plated,PTH,ComponentDrill
T2C1.000
; #@! TA.AperFunction,Plated,PTH,ComponentDrill
T3C1.100
%
G90
G05
T1
X77.325Y-55.025
X77.325Y-57.565
X77.325Y-60.105
X77.325Y-62.645
X77.325Y-65.185
X77.325Y-67.725
X77.325Y-70.265
X77.325Y-72.805
X77.325Y-75.345
X77.325Y-77.885
X77.325Y-80.425
X77.325Y-82.965
X77.325Y-85.505
X77.325Y-88.045
X77.325Y-90.585
X102.725Y-55.025
X102.725Y-57.565
X102.725Y-60.105
X102.725Y-62.645
X102.725Y-65.185
X102.725Y-67.725
X102.725Y-70.265
X102.725Y-72.805
X102.725Y-75.345
X102.725Y-77.885
X102.725Y-80.425
X102.725Y-82.965
X102.725Y-85.505
X102.725Y-88.045
X102.725Y-90.585
T2
X115.775Y-89.45
X115.775Y-91.99
X115.775Y-94.53
X115.775Y-97.07
T3
X116.14Y-62.05
X116.14Y-64.59
X116.14Y-67.13
X116.14Y-69.67
X116.17Y-49.93
X116.17Y-52.47
X116.17Y-55.01
X116.17Y-57.55
M30
