%TF.GenerationSoftware,KiCad,Pcbnew,7.0.11-7.0.11~ubuntu22.04.1*%
%TF.CreationDate,2024-03-24T21:47:42+11:00*%
%TF.ProjectId,esp32_pwm_fan,65737033-325f-4707-976d-5f66616e2e6b,rev?*%
%TF.SameCoordinates,Original*%
%TF.FileFunction,Legend,Top*%
%TF.FilePolarity,Positive*%
%FSLAX46Y46*%
G04 Gerber Fmt 4.6, Leading zero omitted, Abs format (unit mm)*
G04 Created by KiCad (PCBNEW 7.0.11-7.0.11~ubuntu22.04.1) date 2024-03-24 21:47:42*
%MOMM*%
%LPD*%
G01*
G04 APERTURE LIST*
G04 Aperture macros list*
%AMRoundRect*
0 Rectangle with rounded corners*
0 $1 Rounding radius*
0 $2 $3 $4 $5 $6 $7 $8 $9 X,Y pos of 4 corners*
0 Add a 4 corners polygon primitive as box body*
4,1,4,$2,$3,$4,$5,$6,$7,$8,$9,$2,$3,0*
0 Add four circle primitives for the rounded corners*
1,1,$1+$1,$2,$3*
1,1,$1+$1,$4,$5*
1,1,$1+$1,$6,$7*
1,1,$1+$1,$8,$9*
0 Add four rect primitives between the rounded corners*
20,1,$1+$1,$2,$3,$4,$5,0*
20,1,$1+$1,$4,$5,$6,$7,0*
20,1,$1+$1,$6,$7,$8,$9,0*
20,1,$1+$1,$8,$9,$2,$3,0*%
G04 Aperture macros list end*
%ADD10C,0.150000*%
%ADD11C,0.120000*%
%ADD12C,1.000000*%
%ADD13C,0.800000*%
%ADD14RoundRect,0.150000X0.150000X-0.587500X0.150000X0.587500X-0.150000X0.587500X-0.150000X-0.587500X0*%
%ADD15R,2.200000X2.200000*%
%ADD16C,2.200000*%
%ADD17R,1.524000X1.524000*%
%ADD18C,1.524000*%
%ADD19R,1.700000X1.700000*%
%ADD20O,1.700000X1.700000*%
%ADD21RoundRect,0.250000X-0.450000X0.350000X-0.450000X-0.350000X0.450000X-0.350000X0.450000X0.350000X0*%
%ADD22RoundRect,0.250000X0.450000X-0.350000X0.450000X0.350000X-0.450000X0.350000X-0.450000X-0.350000X0*%
%ADD23RoundRect,0.250000X-0.450000X0.325000X-0.450000X-0.325000X0.450000X-0.325000X0.450000X0.325000X0*%
G04 APERTURE END LIST*
D10*
X113675057Y-74957738D02*
X113627438Y-75052976D01*
X113627438Y-75052976D02*
X113532200Y-75148214D01*
X113532200Y-75148214D02*
X113389342Y-75291071D01*
X113389342Y-75291071D02*
X113341723Y-75386309D01*
X113341723Y-75386309D02*
X113341723Y-75481547D01*
X113579819Y-75433928D02*
X113532200Y-75529166D01*
X113532200Y-75529166D02*
X113436961Y-75624404D01*
X113436961Y-75624404D02*
X113246485Y-75672023D01*
X113246485Y-75672023D02*
X112913152Y-75672023D01*
X112913152Y-75672023D02*
X112722676Y-75624404D01*
X112722676Y-75624404D02*
X112627438Y-75529166D01*
X112627438Y-75529166D02*
X112579819Y-75433928D01*
X112579819Y-75433928D02*
X112579819Y-75243452D01*
X112579819Y-75243452D02*
X112627438Y-75148214D01*
X112627438Y-75148214D02*
X112722676Y-75052976D01*
X112722676Y-75052976D02*
X112913152Y-75005357D01*
X112913152Y-75005357D02*
X113246485Y-75005357D01*
X113246485Y-75005357D02*
X113436961Y-75052976D01*
X113436961Y-75052976D02*
X113532200Y-75148214D01*
X113532200Y-75148214D02*
X113579819Y-75243452D01*
X113579819Y-75243452D02*
X113579819Y-75433928D01*
X112675057Y-74624404D02*
X112627438Y-74576785D01*
X112627438Y-74576785D02*
X112579819Y-74481547D01*
X112579819Y-74481547D02*
X112579819Y-74243452D01*
X112579819Y-74243452D02*
X112627438Y-74148214D01*
X112627438Y-74148214D02*
X112675057Y-74100595D01*
X112675057Y-74100595D02*
X112770295Y-74052976D01*
X112770295Y-74052976D02*
X112865533Y-74052976D01*
X112865533Y-74052976D02*
X113008390Y-74100595D01*
X113008390Y-74100595D02*
X113579819Y-74672023D01*
X113579819Y-74672023D02*
X113579819Y-74052976D01*
X119784819Y-54073333D02*
X120499104Y-54073333D01*
X120499104Y-54073333D02*
X120641961Y-54120952D01*
X120641961Y-54120952D02*
X120737200Y-54216190D01*
X120737200Y-54216190D02*
X120784819Y-54359047D01*
X120784819Y-54359047D02*
X120784819Y-54454285D01*
X120784819Y-53073333D02*
X120784819Y-53644761D01*
X120784819Y-53359047D02*
X119784819Y-53359047D01*
X119784819Y-53359047D02*
X119927676Y-53454285D01*
X119927676Y-53454285D02*
X120022914Y-53549523D01*
X120022914Y-53549523D02*
X120070533Y-53644761D01*
X89263095Y-64949819D02*
X89263095Y-65759342D01*
X89263095Y-65759342D02*
X89310714Y-65854580D01*
X89310714Y-65854580D02*
X89358333Y-65902200D01*
X89358333Y-65902200D02*
X89453571Y-65949819D01*
X89453571Y-65949819D02*
X89644047Y-65949819D01*
X89644047Y-65949819D02*
X89739285Y-65902200D01*
X89739285Y-65902200D02*
X89786904Y-65854580D01*
X89786904Y-65854580D02*
X89834523Y-65759342D01*
X89834523Y-65759342D02*
X89834523Y-64949819D01*
X90263095Y-65045057D02*
X90310714Y-64997438D01*
X90310714Y-64997438D02*
X90405952Y-64949819D01*
X90405952Y-64949819D02*
X90644047Y-64949819D01*
X90644047Y-64949819D02*
X90739285Y-64997438D01*
X90739285Y-64997438D02*
X90786904Y-65045057D01*
X90786904Y-65045057D02*
X90834523Y-65140295D01*
X90834523Y-65140295D02*
X90834523Y-65235533D01*
X90834523Y-65235533D02*
X90786904Y-65378390D01*
X90786904Y-65378390D02*
X90215476Y-65949819D01*
X90215476Y-65949819D02*
X90834523Y-65949819D01*
X88763095Y-97969819D02*
X88763095Y-98779342D01*
X88763095Y-98779342D02*
X88810714Y-98874580D01*
X88810714Y-98874580D02*
X88858333Y-98922200D01*
X88858333Y-98922200D02*
X88953571Y-98969819D01*
X88953571Y-98969819D02*
X89144047Y-98969819D01*
X89144047Y-98969819D02*
X89239285Y-98922200D01*
X89239285Y-98922200D02*
X89286904Y-98874580D01*
X89286904Y-98874580D02*
X89334523Y-98779342D01*
X89334523Y-98779342D02*
X89334523Y-97969819D01*
X89763095Y-98922200D02*
X89905952Y-98969819D01*
X89905952Y-98969819D02*
X90144047Y-98969819D01*
X90144047Y-98969819D02*
X90239285Y-98922200D01*
X90239285Y-98922200D02*
X90286904Y-98874580D01*
X90286904Y-98874580D02*
X90334523Y-98779342D01*
X90334523Y-98779342D02*
X90334523Y-98684104D01*
X90334523Y-98684104D02*
X90286904Y-98588866D01*
X90286904Y-98588866D02*
X90239285Y-98541247D01*
X90239285Y-98541247D02*
X90144047Y-98493628D01*
X90144047Y-98493628D02*
X89953571Y-98446009D01*
X89953571Y-98446009D02*
X89858333Y-98398390D01*
X89858333Y-98398390D02*
X89810714Y-98350771D01*
X89810714Y-98350771D02*
X89763095Y-98255533D01*
X89763095Y-98255533D02*
X89763095Y-98160295D01*
X89763095Y-98160295D02*
X89810714Y-98065057D01*
X89810714Y-98065057D02*
X89858333Y-98017438D01*
X89858333Y-98017438D02*
X89953571Y-97969819D01*
X89953571Y-97969819D02*
X90191666Y-97969819D01*
X90191666Y-97969819D02*
X90334523Y-98017438D01*
X91096428Y-98446009D02*
X91239285Y-98493628D01*
X91239285Y-98493628D02*
X91286904Y-98541247D01*
X91286904Y-98541247D02*
X91334523Y-98636485D01*
X91334523Y-98636485D02*
X91334523Y-98779342D01*
X91334523Y-98779342D02*
X91286904Y-98874580D01*
X91286904Y-98874580D02*
X91239285Y-98922200D01*
X91239285Y-98922200D02*
X91144047Y-98969819D01*
X91144047Y-98969819D02*
X90763095Y-98969819D01*
X90763095Y-98969819D02*
X90763095Y-97969819D01*
X90763095Y-97969819D02*
X91096428Y-97969819D01*
X91096428Y-97969819D02*
X91191666Y-98017438D01*
X91191666Y-98017438D02*
X91239285Y-98065057D01*
X91239285Y-98065057D02*
X91286904Y-98160295D01*
X91286904Y-98160295D02*
X91286904Y-98255533D01*
X91286904Y-98255533D02*
X91239285Y-98350771D01*
X91239285Y-98350771D02*
X91191666Y-98398390D01*
X91191666Y-98398390D02*
X91096428Y-98446009D01*
X91096428Y-98446009D02*
X90763095Y-98446009D01*
X80143095Y-94636009D02*
X80476428Y-94636009D01*
X80619285Y-95159819D02*
X80143095Y-95159819D01*
X80143095Y-95159819D02*
X80143095Y-94159819D01*
X80143095Y-94159819D02*
X80619285Y-94159819D01*
X81047857Y-94493152D02*
X81047857Y-95159819D01*
X81047857Y-94588390D02*
X81095476Y-94540771D01*
X81095476Y-94540771D02*
X81190714Y-94493152D01*
X81190714Y-94493152D02*
X81333571Y-94493152D01*
X81333571Y-94493152D02*
X81428809Y-94540771D01*
X81428809Y-94540771D02*
X81476428Y-94636009D01*
X81476428Y-94636009D02*
X81476428Y-95159819D01*
X82381190Y-95159819D02*
X82381190Y-94636009D01*
X82381190Y-94636009D02*
X82333571Y-94540771D01*
X82333571Y-94540771D02*
X82238333Y-94493152D01*
X82238333Y-94493152D02*
X82047857Y-94493152D01*
X82047857Y-94493152D02*
X81952619Y-94540771D01*
X82381190Y-95112200D02*
X82285952Y-95159819D01*
X82285952Y-95159819D02*
X82047857Y-95159819D01*
X82047857Y-95159819D02*
X81952619Y-95112200D01*
X81952619Y-95112200D02*
X81905000Y-95016961D01*
X81905000Y-95016961D02*
X81905000Y-94921723D01*
X81905000Y-94921723D02*
X81952619Y-94826485D01*
X81952619Y-94826485D02*
X82047857Y-94778866D01*
X82047857Y-94778866D02*
X82285952Y-94778866D01*
X82285952Y-94778866D02*
X82381190Y-94731247D01*
X82857381Y-95159819D02*
X82857381Y-94159819D01*
X82857381Y-94540771D02*
X82952619Y-94493152D01*
X82952619Y-94493152D02*
X83143095Y-94493152D01*
X83143095Y-94493152D02*
X83238333Y-94540771D01*
X83238333Y-94540771D02*
X83285952Y-94588390D01*
X83285952Y-94588390D02*
X83333571Y-94683628D01*
X83333571Y-94683628D02*
X83333571Y-94969342D01*
X83333571Y-94969342D02*
X83285952Y-95064580D01*
X83285952Y-95064580D02*
X83238333Y-95112200D01*
X83238333Y-95112200D02*
X83143095Y-95159819D01*
X83143095Y-95159819D02*
X82952619Y-95159819D01*
X82952619Y-95159819D02*
X82857381Y-95112200D01*
X83905000Y-95159819D02*
X83809762Y-95112200D01*
X83809762Y-95112200D02*
X83762143Y-95016961D01*
X83762143Y-95016961D02*
X83762143Y-94159819D01*
X84666905Y-95112200D02*
X84571667Y-95159819D01*
X84571667Y-95159819D02*
X84381191Y-95159819D01*
X84381191Y-95159819D02*
X84285953Y-95112200D01*
X84285953Y-95112200D02*
X84238334Y-95016961D01*
X84238334Y-95016961D02*
X84238334Y-94636009D01*
X84238334Y-94636009D02*
X84285953Y-94540771D01*
X84285953Y-94540771D02*
X84381191Y-94493152D01*
X84381191Y-94493152D02*
X84571667Y-94493152D01*
X84571667Y-94493152D02*
X84666905Y-94540771D01*
X84666905Y-94540771D02*
X84714524Y-94636009D01*
X84714524Y-94636009D02*
X84714524Y-94731247D01*
X84714524Y-94731247D02*
X84238334Y-94826485D01*
X96525952Y-94636009D02*
X96668809Y-94683628D01*
X96668809Y-94683628D02*
X96716428Y-94731247D01*
X96716428Y-94731247D02*
X96764047Y-94826485D01*
X96764047Y-94826485D02*
X96764047Y-94969342D01*
X96764047Y-94969342D02*
X96716428Y-95064580D01*
X96716428Y-95064580D02*
X96668809Y-95112200D01*
X96668809Y-95112200D02*
X96573571Y-95159819D01*
X96573571Y-95159819D02*
X96192619Y-95159819D01*
X96192619Y-95159819D02*
X96192619Y-94159819D01*
X96192619Y-94159819D02*
X96525952Y-94159819D01*
X96525952Y-94159819D02*
X96621190Y-94207438D01*
X96621190Y-94207438D02*
X96668809Y-94255057D01*
X96668809Y-94255057D02*
X96716428Y-94350295D01*
X96716428Y-94350295D02*
X96716428Y-94445533D01*
X96716428Y-94445533D02*
X96668809Y-94540771D01*
X96668809Y-94540771D02*
X96621190Y-94588390D01*
X96621190Y-94588390D02*
X96525952Y-94636009D01*
X96525952Y-94636009D02*
X96192619Y-94636009D01*
X97335476Y-95159819D02*
X97240238Y-95112200D01*
X97240238Y-95112200D02*
X97192619Y-95064580D01*
X97192619Y-95064580D02*
X97145000Y-94969342D01*
X97145000Y-94969342D02*
X97145000Y-94683628D01*
X97145000Y-94683628D02*
X97192619Y-94588390D01*
X97192619Y-94588390D02*
X97240238Y-94540771D01*
X97240238Y-94540771D02*
X97335476Y-94493152D01*
X97335476Y-94493152D02*
X97478333Y-94493152D01*
X97478333Y-94493152D02*
X97573571Y-94540771D01*
X97573571Y-94540771D02*
X97621190Y-94588390D01*
X97621190Y-94588390D02*
X97668809Y-94683628D01*
X97668809Y-94683628D02*
X97668809Y-94969342D01*
X97668809Y-94969342D02*
X97621190Y-95064580D01*
X97621190Y-95064580D02*
X97573571Y-95112200D01*
X97573571Y-95112200D02*
X97478333Y-95159819D01*
X97478333Y-95159819D02*
X97335476Y-95159819D01*
X98240238Y-95159819D02*
X98145000Y-95112200D01*
X98145000Y-95112200D02*
X98097381Y-95064580D01*
X98097381Y-95064580D02*
X98049762Y-94969342D01*
X98049762Y-94969342D02*
X98049762Y-94683628D01*
X98049762Y-94683628D02*
X98097381Y-94588390D01*
X98097381Y-94588390D02*
X98145000Y-94540771D01*
X98145000Y-94540771D02*
X98240238Y-94493152D01*
X98240238Y-94493152D02*
X98383095Y-94493152D01*
X98383095Y-94493152D02*
X98478333Y-94540771D01*
X98478333Y-94540771D02*
X98525952Y-94588390D01*
X98525952Y-94588390D02*
X98573571Y-94683628D01*
X98573571Y-94683628D02*
X98573571Y-94969342D01*
X98573571Y-94969342D02*
X98525952Y-95064580D01*
X98525952Y-95064580D02*
X98478333Y-95112200D01*
X98478333Y-95112200D02*
X98383095Y-95159819D01*
X98383095Y-95159819D02*
X98240238Y-95159819D01*
X98859286Y-94493152D02*
X99240238Y-94493152D01*
X99002143Y-94159819D02*
X99002143Y-95016961D01*
X99002143Y-95016961D02*
X99049762Y-95112200D01*
X99049762Y-95112200D02*
X99145000Y-95159819D01*
X99145000Y-95159819D02*
X99240238Y-95159819D01*
X115441666Y-86574819D02*
X115441666Y-87289104D01*
X115441666Y-87289104D02*
X115394047Y-87431961D01*
X115394047Y-87431961D02*
X115298809Y-87527200D01*
X115298809Y-87527200D02*
X115155952Y-87574819D01*
X115155952Y-87574819D02*
X115060714Y-87574819D01*
X115822619Y-86574819D02*
X116441666Y-86574819D01*
X116441666Y-86574819D02*
X116108333Y-86955771D01*
X116108333Y-86955771D02*
X116251190Y-86955771D01*
X116251190Y-86955771D02*
X116346428Y-87003390D01*
X116346428Y-87003390D02*
X116394047Y-87051009D01*
X116394047Y-87051009D02*
X116441666Y-87146247D01*
X116441666Y-87146247D02*
X116441666Y-87384342D01*
X116441666Y-87384342D02*
X116394047Y-87479580D01*
X116394047Y-87479580D02*
X116346428Y-87527200D01*
X116346428Y-87527200D02*
X116251190Y-87574819D01*
X116251190Y-87574819D02*
X115965476Y-87574819D01*
X115965476Y-87574819D02*
X115870238Y-87527200D01*
X115870238Y-87527200D02*
X115822619Y-87479580D01*
X120504819Y-80491666D02*
X120028628Y-80824999D01*
X120504819Y-81063094D02*
X119504819Y-81063094D01*
X119504819Y-81063094D02*
X119504819Y-80682142D01*
X119504819Y-80682142D02*
X119552438Y-80586904D01*
X119552438Y-80586904D02*
X119600057Y-80539285D01*
X119600057Y-80539285D02*
X119695295Y-80491666D01*
X119695295Y-80491666D02*
X119838152Y-80491666D01*
X119838152Y-80491666D02*
X119933390Y-80539285D01*
X119933390Y-80539285D02*
X119981009Y-80586904D01*
X119981009Y-80586904D02*
X120028628Y-80682142D01*
X120028628Y-80682142D02*
X120028628Y-81063094D01*
X119504819Y-79586904D02*
X119504819Y-80063094D01*
X119504819Y-80063094D02*
X119981009Y-80110713D01*
X119981009Y-80110713D02*
X119933390Y-80063094D01*
X119933390Y-80063094D02*
X119885771Y-79967856D01*
X119885771Y-79967856D02*
X119885771Y-79729761D01*
X119885771Y-79729761D02*
X119933390Y-79634523D01*
X119933390Y-79634523D02*
X119981009Y-79586904D01*
X119981009Y-79586904D02*
X120076247Y-79539285D01*
X120076247Y-79539285D02*
X120314342Y-79539285D01*
X120314342Y-79539285D02*
X120409580Y-79586904D01*
X120409580Y-79586904D02*
X120457200Y-79634523D01*
X120457200Y-79634523D02*
X120504819Y-79729761D01*
X120504819Y-79729761D02*
X120504819Y-79967856D01*
X120504819Y-79967856D02*
X120457200Y-80063094D01*
X120457200Y-80063094D02*
X120409580Y-80110713D01*
X109579819Y-83291666D02*
X109103628Y-83624999D01*
X109579819Y-83863094D02*
X108579819Y-83863094D01*
X108579819Y-83863094D02*
X108579819Y-83482142D01*
X108579819Y-83482142D02*
X108627438Y-83386904D01*
X108627438Y-83386904D02*
X108675057Y-83339285D01*
X108675057Y-83339285D02*
X108770295Y-83291666D01*
X108770295Y-83291666D02*
X108913152Y-83291666D01*
X108913152Y-83291666D02*
X109008390Y-83339285D01*
X109008390Y-83339285D02*
X109056009Y-83386904D01*
X109056009Y-83386904D02*
X109103628Y-83482142D01*
X109103628Y-83482142D02*
X109103628Y-83863094D01*
X108675057Y-82910713D02*
X108627438Y-82863094D01*
X108627438Y-82863094D02*
X108579819Y-82767856D01*
X108579819Y-82767856D02*
X108579819Y-82529761D01*
X108579819Y-82529761D02*
X108627438Y-82434523D01*
X108627438Y-82434523D02*
X108675057Y-82386904D01*
X108675057Y-82386904D02*
X108770295Y-82339285D01*
X108770295Y-82339285D02*
X108865533Y-82339285D01*
X108865533Y-82339285D02*
X109008390Y-82386904D01*
X109008390Y-82386904D02*
X109579819Y-82958332D01*
X109579819Y-82958332D02*
X109579819Y-82339285D01*
X109979819Y-67716666D02*
X109503628Y-68049999D01*
X109979819Y-68288094D02*
X108979819Y-68288094D01*
X108979819Y-68288094D02*
X108979819Y-67907142D01*
X108979819Y-67907142D02*
X109027438Y-67811904D01*
X109027438Y-67811904D02*
X109075057Y-67764285D01*
X109075057Y-67764285D02*
X109170295Y-67716666D01*
X109170295Y-67716666D02*
X109313152Y-67716666D01*
X109313152Y-67716666D02*
X109408390Y-67764285D01*
X109408390Y-67764285D02*
X109456009Y-67811904D01*
X109456009Y-67811904D02*
X109503628Y-67907142D01*
X109503628Y-67907142D02*
X109503628Y-68288094D01*
X109979819Y-66764285D02*
X109979819Y-67335713D01*
X109979819Y-67049999D02*
X108979819Y-67049999D01*
X108979819Y-67049999D02*
X109122676Y-67145237D01*
X109122676Y-67145237D02*
X109217914Y-67240475D01*
X109217914Y-67240475D02*
X109265533Y-67335713D01*
X108225057Y-74957738D02*
X108177438Y-75052976D01*
X108177438Y-75052976D02*
X108082200Y-75148214D01*
X108082200Y-75148214D02*
X107939342Y-75291071D01*
X107939342Y-75291071D02*
X107891723Y-75386309D01*
X107891723Y-75386309D02*
X107891723Y-75481547D01*
X108129819Y-75433928D02*
X108082200Y-75529166D01*
X108082200Y-75529166D02*
X107986961Y-75624404D01*
X107986961Y-75624404D02*
X107796485Y-75672023D01*
X107796485Y-75672023D02*
X107463152Y-75672023D01*
X107463152Y-75672023D02*
X107272676Y-75624404D01*
X107272676Y-75624404D02*
X107177438Y-75529166D01*
X107177438Y-75529166D02*
X107129819Y-75433928D01*
X107129819Y-75433928D02*
X107129819Y-75243452D01*
X107129819Y-75243452D02*
X107177438Y-75148214D01*
X107177438Y-75148214D02*
X107272676Y-75052976D01*
X107272676Y-75052976D02*
X107463152Y-75005357D01*
X107463152Y-75005357D02*
X107796485Y-75005357D01*
X107796485Y-75005357D02*
X107986961Y-75052976D01*
X107986961Y-75052976D02*
X108082200Y-75148214D01*
X108082200Y-75148214D02*
X108129819Y-75243452D01*
X108129819Y-75243452D02*
X108129819Y-75433928D01*
X108129819Y-74052976D02*
X108129819Y-74624404D01*
X108129819Y-74338690D02*
X107129819Y-74338690D01*
X107129819Y-74338690D02*
X107272676Y-74433928D01*
X107272676Y-74433928D02*
X107367914Y-74529166D01*
X107367914Y-74529166D02*
X107415533Y-74624404D01*
X119754819Y-66193333D02*
X120469104Y-66193333D01*
X120469104Y-66193333D02*
X120611961Y-66240952D01*
X120611961Y-66240952D02*
X120707200Y-66336190D01*
X120707200Y-66336190D02*
X120754819Y-66479047D01*
X120754819Y-66479047D02*
X120754819Y-66574285D01*
X119850057Y-65764761D02*
X119802438Y-65717142D01*
X119802438Y-65717142D02*
X119754819Y-65621904D01*
X119754819Y-65621904D02*
X119754819Y-65383809D01*
X119754819Y-65383809D02*
X119802438Y-65288571D01*
X119802438Y-65288571D02*
X119850057Y-65240952D01*
X119850057Y-65240952D02*
X119945295Y-65193333D01*
X119945295Y-65193333D02*
X120040533Y-65193333D01*
X120040533Y-65193333D02*
X120183390Y-65240952D01*
X120183390Y-65240952D02*
X120754819Y-65812380D01*
X120754819Y-65812380D02*
X120754819Y-65193333D01*
X111654819Y-65841666D02*
X111178628Y-66174999D01*
X111654819Y-66413094D02*
X110654819Y-66413094D01*
X110654819Y-66413094D02*
X110654819Y-66032142D01*
X110654819Y-66032142D02*
X110702438Y-65936904D01*
X110702438Y-65936904D02*
X110750057Y-65889285D01*
X110750057Y-65889285D02*
X110845295Y-65841666D01*
X110845295Y-65841666D02*
X110988152Y-65841666D01*
X110988152Y-65841666D02*
X111083390Y-65889285D01*
X111083390Y-65889285D02*
X111131009Y-65936904D01*
X111131009Y-65936904D02*
X111178628Y-66032142D01*
X111178628Y-66032142D02*
X111178628Y-66413094D01*
X110988152Y-64984523D02*
X111654819Y-64984523D01*
X110607200Y-65222618D02*
X111321485Y-65460713D01*
X111321485Y-65460713D02*
X111321485Y-64841666D01*
X115954819Y-83813094D02*
X114954819Y-83813094D01*
X114954819Y-83813094D02*
X114954819Y-83574999D01*
X114954819Y-83574999D02*
X115002438Y-83432142D01*
X115002438Y-83432142D02*
X115097676Y-83336904D01*
X115097676Y-83336904D02*
X115192914Y-83289285D01*
X115192914Y-83289285D02*
X115383390Y-83241666D01*
X115383390Y-83241666D02*
X115526247Y-83241666D01*
X115526247Y-83241666D02*
X115716723Y-83289285D01*
X115716723Y-83289285D02*
X115811961Y-83336904D01*
X115811961Y-83336904D02*
X115907200Y-83432142D01*
X115907200Y-83432142D02*
X115954819Y-83574999D01*
X115954819Y-83574999D02*
X115954819Y-83813094D01*
X115954819Y-82289285D02*
X115954819Y-82860713D01*
X115954819Y-82574999D02*
X114954819Y-82574999D01*
X114954819Y-82574999D02*
X115097676Y-82670237D01*
X115097676Y-82670237D02*
X115192914Y-82765475D01*
X115192914Y-82765475D02*
X115240533Y-82860713D01*
X112379819Y-83241666D02*
X111903628Y-83574999D01*
X112379819Y-83813094D02*
X111379819Y-83813094D01*
X111379819Y-83813094D02*
X111379819Y-83432142D01*
X111379819Y-83432142D02*
X111427438Y-83336904D01*
X111427438Y-83336904D02*
X111475057Y-83289285D01*
X111475057Y-83289285D02*
X111570295Y-83241666D01*
X111570295Y-83241666D02*
X111713152Y-83241666D01*
X111713152Y-83241666D02*
X111808390Y-83289285D01*
X111808390Y-83289285D02*
X111856009Y-83336904D01*
X111856009Y-83336904D02*
X111903628Y-83432142D01*
X111903628Y-83432142D02*
X111903628Y-83813094D01*
X111379819Y-82908332D02*
X111379819Y-82289285D01*
X111379819Y-82289285D02*
X111760771Y-82622618D01*
X111760771Y-82622618D02*
X111760771Y-82479761D01*
X111760771Y-82479761D02*
X111808390Y-82384523D01*
X111808390Y-82384523D02*
X111856009Y-82336904D01*
X111856009Y-82336904D02*
X111951247Y-82289285D01*
X111951247Y-82289285D02*
X112189342Y-82289285D01*
X112189342Y-82289285D02*
X112284580Y-82336904D01*
X112284580Y-82336904D02*
X112332200Y-82384523D01*
X112332200Y-82384523D02*
X112379819Y-82479761D01*
X112379819Y-82479761D02*
X112379819Y-82765475D01*
X112379819Y-82765475D02*
X112332200Y-82860713D01*
X112332200Y-82860713D02*
X112284580Y-82908332D01*
D11*
%TO.C,Q2*%
X113965000Y-74862500D02*
X113965000Y-75512500D01*
X113965000Y-74862500D02*
X113965000Y-74212500D01*
X117085000Y-74862500D02*
X117085000Y-75512500D01*
X117085000Y-74862500D02*
X117085000Y-74212500D01*
X114015000Y-76025000D02*
X113685000Y-76265000D01*
X113685000Y-75785000D01*
X114015000Y-76025000D01*
G36*
X114015000Y-76025000D02*
G01*
X113685000Y-76265000D01*
X113685000Y-75785000D01*
X114015000Y-76025000D01*
G37*
%TO.C,J1*%
X113510000Y-48130000D02*
X112770000Y-48130000D01*
X112770000Y-48130000D02*
X112770000Y-48630000D01*
X119330000Y-48370000D02*
X113010000Y-48370000D01*
X119330000Y-48370000D02*
X119330000Y-59110000D01*
X118870000Y-48370000D02*
X118870000Y-59110000D01*
X113570000Y-48370000D02*
X113570000Y-59110000D01*
X113010000Y-48370000D02*
X113010000Y-59110000D01*
X119330000Y-59110000D02*
X113010000Y-59110000D01*
%TO.C,U2*%
X76025000Y-50985000D02*
X76025000Y-98485000D01*
X78025000Y-48985000D02*
X102025000Y-48985000D01*
X78025000Y-100485000D02*
X102025000Y-100485000D01*
X81135000Y-50255000D02*
X98915000Y-50255000D01*
X81135000Y-55335000D02*
X81135000Y-50255000D01*
X81135000Y-95975000D02*
X83675000Y-95975000D01*
X81135000Y-99785000D02*
X81135000Y-95975000D01*
X82405000Y-51017000D02*
X84945000Y-51017000D01*
X82405000Y-54573000D02*
X82405000Y-51017000D01*
X82525000Y-55985000D02*
X97525000Y-55985000D01*
X82525000Y-73985000D02*
X82525000Y-55985000D01*
X83675000Y-95975000D02*
X83675000Y-99785000D01*
X83675000Y-99785000D02*
X81135000Y-99785000D01*
X84945000Y-51017000D02*
X84945000Y-53049000D01*
X84945000Y-53049000D02*
X87485000Y-53049000D01*
X86025000Y-94485000D02*
X86025000Y-100485000D01*
X86025000Y-94485000D02*
X94025000Y-94485000D01*
X87485000Y-51017000D02*
X90025000Y-51017000D01*
X87485000Y-53049000D02*
X87485000Y-51017000D01*
X90025000Y-51017000D02*
X90025000Y-53049000D01*
X90025000Y-53049000D02*
X92565000Y-53049000D01*
X92565000Y-51017000D02*
X97645000Y-51017000D01*
X92565000Y-53049000D02*
X92565000Y-51017000D01*
X94025000Y-94485000D02*
X94025000Y-100485000D01*
X95105000Y-51017000D02*
X95105000Y-54573000D01*
X96375000Y-95975000D02*
X98915000Y-95975000D01*
X96375000Y-99785000D02*
X96375000Y-95975000D01*
X97525000Y-55985000D02*
X97525000Y-73985000D01*
X97525000Y-73985000D02*
X82525000Y-73985000D01*
X97645000Y-51017000D02*
X97645000Y-54573000D01*
X98915000Y-50255000D02*
X98915000Y-55335000D01*
X98915000Y-55335000D02*
X81135000Y-55335000D01*
X98915000Y-95975000D02*
X98915000Y-99785000D01*
X98915000Y-99785000D02*
X96375000Y-99785000D01*
X104025000Y-98485000D02*
X104025000Y-50985000D01*
X78025000Y-48985000D02*
G75*
G03*
X76025000Y-50985000I-1J-1999999D01*
G01*
X76025000Y-98485000D02*
G75*
G03*
X78025000Y-100485000I1999999J-1D01*
G01*
X104025000Y-50985000D02*
G75*
G03*
X102025000Y-48985000I-2000000J0D01*
G01*
X102025000Y-100485000D02*
G75*
G03*
X104025000Y-98485000I0J2000000D01*
G01*
X79825000Y-50985000D02*
G75*
G03*
X76825000Y-50985000I-1500000J0D01*
G01*
X76825000Y-50985000D02*
G75*
G03*
X79825000Y-50985000I1500000J0D01*
G01*
X79825000Y-98485000D02*
G75*
G03*
X76825000Y-98485000I-1500000J0D01*
G01*
X76825000Y-98485000D02*
G75*
G03*
X79825000Y-98485000I1500000J0D01*
G01*
D12*
X82705000Y-97880000D02*
G75*
G03*
X82105000Y-97880000I-300000J0D01*
G01*
X82105000Y-97880000D02*
G75*
G03*
X82705000Y-97880000I300000J0D01*
G01*
D13*
X85345000Y-71845000D02*
G75*
G03*
X84545000Y-71845000I-400000J0D01*
G01*
X84545000Y-71845000D02*
G75*
G03*
X85345000Y-71845000I400000J0D01*
G01*
D12*
X97945000Y-97880000D02*
G75*
G03*
X97345000Y-97880000I-300000J0D01*
G01*
X97345000Y-97880000D02*
G75*
G03*
X97945000Y-97880000I300000J0D01*
G01*
D11*
X103225000Y-50985000D02*
G75*
G03*
X100225000Y-50985000I-1500000J0D01*
G01*
X100225000Y-50985000D02*
G75*
G03*
X103225000Y-50985000I1500000J0D01*
G01*
X103225000Y-98485000D02*
G75*
G03*
X100225000Y-98485000I-1500000J0D01*
G01*
X100225000Y-98485000D02*
G75*
G03*
X103225000Y-98485000I1500000J0D01*
G01*
%TO.C,J3*%
X114445000Y-88120000D02*
X115775000Y-88120000D01*
X114445000Y-89450000D02*
X114445000Y-88120000D01*
X114445000Y-90720000D02*
X114445000Y-98400000D01*
X114445000Y-90720000D02*
X117105000Y-90720000D01*
X114445000Y-98400000D02*
X117105000Y-98400000D01*
X117105000Y-90720000D02*
X117105000Y-98400000D01*
%TO.C,R5*%
X119135000Y-80097936D02*
X119135000Y-80552064D01*
X117665000Y-80097936D02*
X117665000Y-80552064D01*
%TO.C,R2*%
X108365000Y-80552064D02*
X108365000Y-80097936D01*
X109835000Y-80552064D02*
X109835000Y-80097936D01*
%TO.C,R1*%
X110260000Y-70097936D02*
X110260000Y-70552064D01*
X108790000Y-70097936D02*
X108790000Y-70552064D01*
%TO.C,Q1*%
X108515000Y-74862500D02*
X108515000Y-75512500D01*
X108515000Y-74862500D02*
X108515000Y-74212500D01*
X111635000Y-74862500D02*
X111635000Y-75512500D01*
X111635000Y-74862500D02*
X111635000Y-74212500D01*
X108565000Y-76025000D02*
X108235000Y-76265000D01*
X108235000Y-75785000D01*
X108565000Y-76025000D01*
G36*
X108565000Y-76025000D02*
G01*
X108235000Y-76265000D01*
X108235000Y-75785000D01*
X108565000Y-76025000D01*
G37*
%TO.C,J2*%
X113480000Y-60250000D02*
X112740000Y-60250000D01*
X112740000Y-60250000D02*
X112740000Y-60750000D01*
X119300000Y-60490000D02*
X112980000Y-60490000D01*
X119300000Y-60490000D02*
X119300000Y-71230000D01*
X118840000Y-60490000D02*
X118840000Y-71230000D01*
X113540000Y-60490000D02*
X113540000Y-71230000D01*
X112980000Y-60490000D02*
X112980000Y-71230000D01*
X119300000Y-71230000D02*
X112980000Y-71230000D01*
%TO.C,R4*%
X110285000Y-65447936D02*
X110285000Y-65902064D01*
X108815000Y-65447936D02*
X108815000Y-65902064D01*
%TO.C,D1*%
X116460000Y-78465000D02*
X114540000Y-78465000D01*
X114540000Y-78465000D02*
X114540000Y-81325000D01*
X116460000Y-81325000D02*
X116460000Y-78465000D01*
%TO.C,R3*%
X112660000Y-80072936D02*
X112660000Y-80527064D01*
X111190000Y-80072936D02*
X111190000Y-80527064D01*
%TD*%
%LPC*%
D14*
%TO.C,Q2*%
X114575000Y-75800000D03*
X116475000Y-75800000D03*
X115525000Y-73925000D03*
%TD*%
D15*
%TO.C,J1*%
X116170000Y-49930000D03*
D16*
X116170000Y-52470000D03*
X116170000Y-55010000D03*
X116170000Y-57550000D03*
%TD*%
D17*
%TO.C,U2*%
X77325000Y-55025000D03*
D18*
X77325000Y-57565000D03*
X77325000Y-60105000D03*
X77325000Y-62645000D03*
X77325000Y-65185000D03*
X77325000Y-67725000D03*
X77325000Y-70265000D03*
X77325000Y-72805000D03*
X77325000Y-75345000D03*
X77325000Y-77885000D03*
X77325000Y-80425000D03*
X77325000Y-82965000D03*
X77325000Y-85505000D03*
X77325000Y-88045000D03*
X77325000Y-90585000D03*
X102725000Y-90585000D03*
X102725000Y-88045000D03*
X102725000Y-85505000D03*
X102725000Y-82965000D03*
X102725000Y-80425000D03*
X102725000Y-77885000D03*
X102725000Y-75345000D03*
X102725000Y-72805000D03*
X102725000Y-70265000D03*
X102725000Y-67725000D03*
X102725000Y-65185000D03*
X102725000Y-62645000D03*
X102725000Y-60105000D03*
X102725000Y-57565000D03*
X102725000Y-55025000D03*
%TD*%
D19*
%TO.C,J3*%
X115775000Y-89450000D03*
D20*
X115775000Y-91990000D03*
X115775000Y-94530000D03*
X115775000Y-97070000D03*
%TD*%
D21*
%TO.C,R5*%
X118400000Y-79325000D03*
X118400000Y-81325000D03*
%TD*%
D22*
%TO.C,R2*%
X109100000Y-81325000D03*
X109100000Y-79325000D03*
%TD*%
D21*
%TO.C,R1*%
X109525000Y-69325000D03*
X109525000Y-71325000D03*
%TD*%
D14*
%TO.C,Q1*%
X109125000Y-75800000D03*
X111025000Y-75800000D03*
X110075000Y-73925000D03*
%TD*%
D15*
%TO.C,J2*%
X116140000Y-62050000D03*
D16*
X116140000Y-64590000D03*
X116140000Y-67130000D03*
X116140000Y-69670000D03*
%TD*%
D21*
%TO.C,R4*%
X109550000Y-64675000D03*
X109550000Y-66675000D03*
%TD*%
D23*
%TO.C,D1*%
X115500000Y-79300000D03*
X115500000Y-81350000D03*
%TD*%
D21*
%TO.C,R3*%
X111925000Y-79300000D03*
X111925000Y-81300000D03*
%TD*%
%LPD*%
M02*
