%TF.GenerationSoftware,KiCad,Pcbnew,7.0.11-7.0.11~ubuntu22.04.1*%
%TF.CreationDate,2024-03-24T21:49:16+11:00*%
%TF.ProjectId,esp32_pwm_fan,65737033-325f-4707-976d-5f66616e2e6b,rev?*%
%TF.SameCoordinates,Original*%
%TF.FileFunction,Drillmap*%
%TF.FilePolarity,Positive*%
%FSLAX45Y45*%
G04 Gerber Fmt 4.5, Leading zero omitted, Abs format (unit mm)*
G04 Created by KiCad (PCBNEW 7.0.11-7.0.11~ubuntu22.04.1) date 2024-03-24 21:49:16*
%MOMM*%
%LPD*%
G01*
G04 APERTURE LIST*
%ADD10C,0.100000*%
%ADD11C,0.200000*%
%ADD12C,0.110000*%
G04 APERTURE END LIST*
D10*
X11141629Y-4788000D02*
G75*
G03*
X10872371Y-4788000I-134629J0D01*
G01*
X10872371Y-4788000D02*
G75*
G03*
X11141629Y-4788000I134629J0D01*
G01*
X7302500Y-4600000D02*
X12217500Y-4600000D01*
X12217500Y-10362500D01*
X7302500Y-10362500D01*
X7302500Y-4600000D01*
X10784629Y-4788000D02*
G75*
G03*
X10515371Y-4788000I-134629J0D01*
G01*
X10515371Y-4788000D02*
G75*
G03*
X10784629Y-4788000I134629J0D01*
G01*
D11*
D10*
X7694400Y-5464400D02*
X7770600Y-5540600D01*
X7770600Y-5464400D02*
X7694400Y-5540600D01*
X7694400Y-5718400D02*
X7770600Y-5794600D01*
X7770600Y-5718400D02*
X7694400Y-5794600D01*
X7694400Y-5972400D02*
X7770600Y-6048600D01*
X7770600Y-5972400D02*
X7694400Y-6048600D01*
X7694400Y-6226400D02*
X7770600Y-6302600D01*
X7770600Y-6226400D02*
X7694400Y-6302600D01*
X7694400Y-6480400D02*
X7770600Y-6556600D01*
X7770600Y-6480400D02*
X7694400Y-6556600D01*
X7694400Y-6734400D02*
X7770600Y-6810600D01*
X7770600Y-6734400D02*
X7694400Y-6810600D01*
X7694400Y-6988400D02*
X7770600Y-7064600D01*
X7770600Y-6988400D02*
X7694400Y-7064600D01*
X7694400Y-7242400D02*
X7770600Y-7318600D01*
X7770600Y-7242400D02*
X7694400Y-7318600D01*
X7694400Y-7496400D02*
X7770600Y-7572600D01*
X7770600Y-7496400D02*
X7694400Y-7572600D01*
X7694400Y-7750400D02*
X7770600Y-7826600D01*
X7770600Y-7750400D02*
X7694400Y-7826600D01*
X7694400Y-8004400D02*
X7770600Y-8080600D01*
X7770600Y-8004400D02*
X7694400Y-8080600D01*
X7694400Y-8258400D02*
X7770600Y-8334600D01*
X7770600Y-8258400D02*
X7694400Y-8334600D01*
X7694400Y-8512400D02*
X7770600Y-8588600D01*
X7770600Y-8512400D02*
X7694400Y-8588600D01*
X7694400Y-8766400D02*
X7770600Y-8842600D01*
X7770600Y-8766400D02*
X7694400Y-8842600D01*
X7694400Y-9020400D02*
X7770600Y-9096600D01*
X7770600Y-9020400D02*
X7694400Y-9096600D01*
X10234400Y-5464400D02*
X10310600Y-5540600D01*
X10310600Y-5464400D02*
X10234400Y-5540600D01*
X10234400Y-5718400D02*
X10310600Y-5794600D01*
X10310600Y-5718400D02*
X10234400Y-5794600D01*
X10234400Y-5972400D02*
X10310600Y-6048600D01*
X10310600Y-5972400D02*
X10234400Y-6048600D01*
X10234400Y-6226400D02*
X10310600Y-6302600D01*
X10310600Y-6226400D02*
X10234400Y-6302600D01*
X10234400Y-6480400D02*
X10310600Y-6556600D01*
X10310600Y-6480400D02*
X10234400Y-6556600D01*
X10234400Y-6734400D02*
X10310600Y-6810600D01*
X10310600Y-6734400D02*
X10234400Y-6810600D01*
X10234400Y-6988400D02*
X10310600Y-7064600D01*
X10310600Y-6988400D02*
X10234400Y-7064600D01*
X10234400Y-7242400D02*
X10310600Y-7318600D01*
X10310600Y-7242400D02*
X10234400Y-7318600D01*
X10234400Y-7496400D02*
X10310600Y-7572600D01*
X10310600Y-7496400D02*
X10234400Y-7572600D01*
X10234400Y-7750400D02*
X10310600Y-7826600D01*
X10310600Y-7750400D02*
X10234400Y-7826600D01*
X10234400Y-8004400D02*
X10310600Y-8080600D01*
X10310600Y-8004400D02*
X10234400Y-8080600D01*
X10234400Y-8258400D02*
X10310600Y-8334600D01*
X10310600Y-8258400D02*
X10234400Y-8334600D01*
X10234400Y-8512400D02*
X10310600Y-8588600D01*
X10310600Y-8512400D02*
X10234400Y-8588600D01*
X10234400Y-8766400D02*
X10310600Y-8842600D01*
X10310600Y-8766400D02*
X10234400Y-8842600D01*
X10234400Y-9020400D02*
X10310600Y-9096600D01*
X10310600Y-9020400D02*
X10234400Y-9096600D01*
X11627500Y-8945000D02*
G75*
G03*
X11527500Y-8945000I-50000J0D01*
G01*
X11527500Y-8945000D02*
G75*
G03*
X11627500Y-8945000I50000J0D01*
G01*
X11627500Y-9199000D02*
G75*
G03*
X11527500Y-9199000I-50000J0D01*
G01*
X11527500Y-9199000D02*
G75*
G03*
X11627500Y-9199000I50000J0D01*
G01*
X11627500Y-9453000D02*
G75*
G03*
X11527500Y-9453000I-50000J0D01*
G01*
X11527500Y-9453000D02*
G75*
G03*
X11627500Y-9453000I50000J0D01*
G01*
X11627500Y-9707000D02*
G75*
G03*
X11527500Y-9707000I-50000J0D01*
G01*
X11527500Y-9707000D02*
G75*
G03*
X11627500Y-9707000I50000J0D01*
G01*
D12*
X11614000Y-6150000D02*
X11614000Y-6260000D01*
X11559000Y-6205000D02*
X11669000Y-6205000D01*
X11614000Y-6404000D02*
X11614000Y-6514000D01*
X11559000Y-6459000D02*
X11669000Y-6459000D01*
X11614000Y-6658000D02*
X11614000Y-6768000D01*
X11559000Y-6713000D02*
X11669000Y-6713000D01*
X11614000Y-6912000D02*
X11614000Y-7022000D01*
X11559000Y-6967000D02*
X11669000Y-6967000D01*
X11617000Y-4938000D02*
X11617000Y-5048000D01*
X11562000Y-4993000D02*
X11672000Y-4993000D01*
X11617000Y-5192000D02*
X11617000Y-5302000D01*
X11562000Y-5247000D02*
X11672000Y-5247000D01*
X11617000Y-5446000D02*
X11617000Y-5556000D01*
X11562000Y-5501000D02*
X11672000Y-5501000D01*
X11617000Y-5700000D02*
X11617000Y-5810000D01*
X11562000Y-5755000D02*
X11672000Y-5755000D01*
D11*
X7558277Y-10678984D02*
X7558277Y-10478984D01*
X7558277Y-10478984D02*
X7605896Y-10478984D01*
X7605896Y-10478984D02*
X7634467Y-10488508D01*
X7634467Y-10488508D02*
X7653515Y-10507555D01*
X7653515Y-10507555D02*
X7663039Y-10526603D01*
X7663039Y-10526603D02*
X7672562Y-10564698D01*
X7672562Y-10564698D02*
X7672562Y-10593270D01*
X7672562Y-10593270D02*
X7663039Y-10631365D01*
X7663039Y-10631365D02*
X7653515Y-10650412D01*
X7653515Y-10650412D02*
X7634467Y-10669460D01*
X7634467Y-10669460D02*
X7605896Y-10678984D01*
X7605896Y-10678984D02*
X7558277Y-10678984D01*
X7758277Y-10678984D02*
X7758277Y-10545650D01*
X7758277Y-10583746D02*
X7767801Y-10564698D01*
X7767801Y-10564698D02*
X7777324Y-10555174D01*
X7777324Y-10555174D02*
X7796372Y-10545650D01*
X7796372Y-10545650D02*
X7815420Y-10545650D01*
X7882086Y-10678984D02*
X7882086Y-10545650D01*
X7882086Y-10478984D02*
X7872562Y-10488508D01*
X7872562Y-10488508D02*
X7882086Y-10498031D01*
X7882086Y-10498031D02*
X7891610Y-10488508D01*
X7891610Y-10488508D02*
X7882086Y-10478984D01*
X7882086Y-10478984D02*
X7882086Y-10498031D01*
X8005896Y-10678984D02*
X7986848Y-10669460D01*
X7986848Y-10669460D02*
X7977324Y-10650412D01*
X7977324Y-10650412D02*
X7977324Y-10478984D01*
X8110658Y-10678984D02*
X8091610Y-10669460D01*
X8091610Y-10669460D02*
X8082086Y-10650412D01*
X8082086Y-10650412D02*
X8082086Y-10478984D01*
X8339229Y-10678984D02*
X8339229Y-10478984D01*
X8339229Y-10478984D02*
X8405896Y-10621841D01*
X8405896Y-10621841D02*
X8472563Y-10478984D01*
X8472563Y-10478984D02*
X8472563Y-10678984D01*
X8653515Y-10678984D02*
X8653515Y-10574222D01*
X8653515Y-10574222D02*
X8643991Y-10555174D01*
X8643991Y-10555174D02*
X8624944Y-10545650D01*
X8624944Y-10545650D02*
X8586848Y-10545650D01*
X8586848Y-10545650D02*
X8567801Y-10555174D01*
X8653515Y-10669460D02*
X8634467Y-10678984D01*
X8634467Y-10678984D02*
X8586848Y-10678984D01*
X8586848Y-10678984D02*
X8567801Y-10669460D01*
X8567801Y-10669460D02*
X8558277Y-10650412D01*
X8558277Y-10650412D02*
X8558277Y-10631365D01*
X8558277Y-10631365D02*
X8567801Y-10612317D01*
X8567801Y-10612317D02*
X8586848Y-10602793D01*
X8586848Y-10602793D02*
X8634467Y-10602793D01*
X8634467Y-10602793D02*
X8653515Y-10593270D01*
X8748753Y-10545650D02*
X8748753Y-10745650D01*
X8748753Y-10555174D02*
X8767801Y-10545650D01*
X8767801Y-10545650D02*
X8805896Y-10545650D01*
X8805896Y-10545650D02*
X8824944Y-10555174D01*
X8824944Y-10555174D02*
X8834467Y-10564698D01*
X8834467Y-10564698D02*
X8843991Y-10583746D01*
X8843991Y-10583746D02*
X8843991Y-10640889D01*
X8843991Y-10640889D02*
X8834467Y-10659936D01*
X8834467Y-10659936D02*
X8824944Y-10669460D01*
X8824944Y-10669460D02*
X8805896Y-10678984D01*
X8805896Y-10678984D02*
X8767801Y-10678984D01*
X8767801Y-10678984D02*
X8748753Y-10669460D01*
X8929705Y-10659936D02*
X8939229Y-10669460D01*
X8939229Y-10669460D02*
X8929705Y-10678984D01*
X8929705Y-10678984D02*
X8920182Y-10669460D01*
X8920182Y-10669460D02*
X8929705Y-10659936D01*
X8929705Y-10659936D02*
X8929705Y-10678984D01*
X8929705Y-10555174D02*
X8939229Y-10564698D01*
X8939229Y-10564698D02*
X8929705Y-10574222D01*
X8929705Y-10574222D02*
X8920182Y-10564698D01*
X8920182Y-10564698D02*
X8929705Y-10555174D01*
X8929705Y-10555174D02*
X8929705Y-10574222D01*
D10*
X7221300Y-10969400D02*
X7297500Y-11045600D01*
X7297500Y-10969400D02*
X7221300Y-11045600D01*
D11*
X7596372Y-10898984D02*
X7615420Y-10898984D01*
X7615420Y-10898984D02*
X7634467Y-10908508D01*
X7634467Y-10908508D02*
X7643991Y-10918031D01*
X7643991Y-10918031D02*
X7653515Y-10937079D01*
X7653515Y-10937079D02*
X7663039Y-10975174D01*
X7663039Y-10975174D02*
X7663039Y-11022793D01*
X7663039Y-11022793D02*
X7653515Y-11060889D01*
X7653515Y-11060889D02*
X7643991Y-11079936D01*
X7643991Y-11079936D02*
X7634467Y-11089460D01*
X7634467Y-11089460D02*
X7615420Y-11098984D01*
X7615420Y-11098984D02*
X7596372Y-11098984D01*
X7596372Y-11098984D02*
X7577324Y-11089460D01*
X7577324Y-11089460D02*
X7567801Y-11079936D01*
X7567801Y-11079936D02*
X7558277Y-11060889D01*
X7558277Y-11060889D02*
X7548753Y-11022793D01*
X7548753Y-11022793D02*
X7548753Y-10975174D01*
X7548753Y-10975174D02*
X7558277Y-10937079D01*
X7558277Y-10937079D02*
X7567801Y-10918031D01*
X7567801Y-10918031D02*
X7577324Y-10908508D01*
X7577324Y-10908508D02*
X7596372Y-10898984D01*
X7748753Y-11079936D02*
X7758277Y-11089460D01*
X7758277Y-11089460D02*
X7748753Y-11098984D01*
X7748753Y-11098984D02*
X7739229Y-11089460D01*
X7739229Y-11089460D02*
X7748753Y-11079936D01*
X7748753Y-11079936D02*
X7748753Y-11098984D01*
X7824943Y-10898984D02*
X7958277Y-10898984D01*
X7958277Y-10898984D02*
X7872562Y-11098984D01*
X8120182Y-10898984D02*
X8082086Y-10898984D01*
X8082086Y-10898984D02*
X8063039Y-10908508D01*
X8063039Y-10908508D02*
X8053515Y-10918031D01*
X8053515Y-10918031D02*
X8034467Y-10946603D01*
X8034467Y-10946603D02*
X8024943Y-10984698D01*
X8024943Y-10984698D02*
X8024943Y-11060889D01*
X8024943Y-11060889D02*
X8034467Y-11079936D01*
X8034467Y-11079936D02*
X8043991Y-11089460D01*
X8043991Y-11089460D02*
X8063039Y-11098984D01*
X8063039Y-11098984D02*
X8101134Y-11098984D01*
X8101134Y-11098984D02*
X8120182Y-11089460D01*
X8120182Y-11089460D02*
X8129705Y-11079936D01*
X8129705Y-11079936D02*
X8139229Y-11060889D01*
X8139229Y-11060889D02*
X8139229Y-11013270D01*
X8139229Y-11013270D02*
X8129705Y-10994222D01*
X8129705Y-10994222D02*
X8120182Y-10984698D01*
X8120182Y-10984698D02*
X8101134Y-10975174D01*
X8101134Y-10975174D02*
X8063039Y-10975174D01*
X8063039Y-10975174D02*
X8043991Y-10984698D01*
X8043991Y-10984698D02*
X8034467Y-10994222D01*
X8034467Y-10994222D02*
X8024943Y-11013270D01*
X8215420Y-10918031D02*
X8224943Y-10908508D01*
X8224943Y-10908508D02*
X8243991Y-10898984D01*
X8243991Y-10898984D02*
X8291610Y-10898984D01*
X8291610Y-10898984D02*
X8310658Y-10908508D01*
X8310658Y-10908508D02*
X8320182Y-10918031D01*
X8320182Y-10918031D02*
X8329705Y-10937079D01*
X8329705Y-10937079D02*
X8329705Y-10956127D01*
X8329705Y-10956127D02*
X8320182Y-10984698D01*
X8320182Y-10984698D02*
X8205896Y-11098984D01*
X8205896Y-11098984D02*
X8329705Y-11098984D01*
X8415420Y-11098984D02*
X8415420Y-10965650D01*
X8415420Y-10984698D02*
X8424944Y-10975174D01*
X8424944Y-10975174D02*
X8443991Y-10965650D01*
X8443991Y-10965650D02*
X8472563Y-10965650D01*
X8472563Y-10965650D02*
X8491610Y-10975174D01*
X8491610Y-10975174D02*
X8501134Y-10994222D01*
X8501134Y-10994222D02*
X8501134Y-11098984D01*
X8501134Y-10994222D02*
X8510658Y-10975174D01*
X8510658Y-10975174D02*
X8529705Y-10965650D01*
X8529705Y-10965650D02*
X8558277Y-10965650D01*
X8558277Y-10965650D02*
X8577325Y-10975174D01*
X8577325Y-10975174D02*
X8586848Y-10994222D01*
X8586848Y-10994222D02*
X8586848Y-11098984D01*
X8682086Y-11098984D02*
X8682086Y-10965650D01*
X8682086Y-10984698D02*
X8691610Y-10975174D01*
X8691610Y-10975174D02*
X8710658Y-10965650D01*
X8710658Y-10965650D02*
X8739229Y-10965650D01*
X8739229Y-10965650D02*
X8758277Y-10975174D01*
X8758277Y-10975174D02*
X8767801Y-10994222D01*
X8767801Y-10994222D02*
X8767801Y-11098984D01*
X8767801Y-10994222D02*
X8777325Y-10975174D01*
X8777325Y-10975174D02*
X8796372Y-10965650D01*
X8796372Y-10965650D02*
X8824944Y-10965650D01*
X8824944Y-10965650D02*
X8843991Y-10975174D01*
X8843991Y-10975174D02*
X8853515Y-10994222D01*
X8853515Y-10994222D02*
X8853515Y-11098984D01*
X9243991Y-10889460D02*
X9072563Y-11146603D01*
X9501134Y-10898984D02*
X9520182Y-10898984D01*
X9520182Y-10898984D02*
X9539229Y-10908508D01*
X9539229Y-10908508D02*
X9548753Y-10918031D01*
X9548753Y-10918031D02*
X9558277Y-10937079D01*
X9558277Y-10937079D02*
X9567801Y-10975174D01*
X9567801Y-10975174D02*
X9567801Y-11022793D01*
X9567801Y-11022793D02*
X9558277Y-11060889D01*
X9558277Y-11060889D02*
X9548753Y-11079936D01*
X9548753Y-11079936D02*
X9539229Y-11089460D01*
X9539229Y-11089460D02*
X9520182Y-11098984D01*
X9520182Y-11098984D02*
X9501134Y-11098984D01*
X9501134Y-11098984D02*
X9482087Y-11089460D01*
X9482087Y-11089460D02*
X9472563Y-11079936D01*
X9472563Y-11079936D02*
X9463039Y-11060889D01*
X9463039Y-11060889D02*
X9453515Y-11022793D01*
X9453515Y-11022793D02*
X9453515Y-10975174D01*
X9453515Y-10975174D02*
X9463039Y-10937079D01*
X9463039Y-10937079D02*
X9472563Y-10918031D01*
X9472563Y-10918031D02*
X9482087Y-10908508D01*
X9482087Y-10908508D02*
X9501134Y-10898984D01*
X9653515Y-11079936D02*
X9663039Y-11089460D01*
X9663039Y-11089460D02*
X9653515Y-11098984D01*
X9653515Y-11098984D02*
X9643991Y-11089460D01*
X9643991Y-11089460D02*
X9653515Y-11079936D01*
X9653515Y-11079936D02*
X9653515Y-11098984D01*
X9786848Y-10898984D02*
X9805896Y-10898984D01*
X9805896Y-10898984D02*
X9824944Y-10908508D01*
X9824944Y-10908508D02*
X9834468Y-10918031D01*
X9834468Y-10918031D02*
X9843991Y-10937079D01*
X9843991Y-10937079D02*
X9853515Y-10975174D01*
X9853515Y-10975174D02*
X9853515Y-11022793D01*
X9853515Y-11022793D02*
X9843991Y-11060889D01*
X9843991Y-11060889D02*
X9834468Y-11079936D01*
X9834468Y-11079936D02*
X9824944Y-11089460D01*
X9824944Y-11089460D02*
X9805896Y-11098984D01*
X9805896Y-11098984D02*
X9786848Y-11098984D01*
X9786848Y-11098984D02*
X9767801Y-11089460D01*
X9767801Y-11089460D02*
X9758277Y-11079936D01*
X9758277Y-11079936D02*
X9748753Y-11060889D01*
X9748753Y-11060889D02*
X9739229Y-11022793D01*
X9739229Y-11022793D02*
X9739229Y-10975174D01*
X9739229Y-10975174D02*
X9748753Y-10937079D01*
X9748753Y-10937079D02*
X9758277Y-10918031D01*
X9758277Y-10918031D02*
X9767801Y-10908508D01*
X9767801Y-10908508D02*
X9786848Y-10898984D01*
X9920182Y-10898984D02*
X10043991Y-10898984D01*
X10043991Y-10898984D02*
X9977325Y-10975174D01*
X9977325Y-10975174D02*
X10005896Y-10975174D01*
X10005896Y-10975174D02*
X10024944Y-10984698D01*
X10024944Y-10984698D02*
X10034468Y-10994222D01*
X10034468Y-10994222D02*
X10043991Y-11013270D01*
X10043991Y-11013270D02*
X10043991Y-11060889D01*
X10043991Y-11060889D02*
X10034468Y-11079936D01*
X10034468Y-11079936D02*
X10024944Y-11089460D01*
X10024944Y-11089460D02*
X10005896Y-11098984D01*
X10005896Y-11098984D02*
X9948753Y-11098984D01*
X9948753Y-11098984D02*
X9929706Y-11089460D01*
X9929706Y-11089460D02*
X9920182Y-11079936D01*
X10167801Y-10898984D02*
X10186849Y-10898984D01*
X10186849Y-10898984D02*
X10205896Y-10908508D01*
X10205896Y-10908508D02*
X10215420Y-10918031D01*
X10215420Y-10918031D02*
X10224944Y-10937079D01*
X10224944Y-10937079D02*
X10234468Y-10975174D01*
X10234468Y-10975174D02*
X10234468Y-11022793D01*
X10234468Y-11022793D02*
X10224944Y-11060889D01*
X10224944Y-11060889D02*
X10215420Y-11079936D01*
X10215420Y-11079936D02*
X10205896Y-11089460D01*
X10205896Y-11089460D02*
X10186849Y-11098984D01*
X10186849Y-11098984D02*
X10167801Y-11098984D01*
X10167801Y-11098984D02*
X10148753Y-11089460D01*
X10148753Y-11089460D02*
X10139229Y-11079936D01*
X10139229Y-11079936D02*
X10129706Y-11060889D01*
X10129706Y-11060889D02*
X10120182Y-11022793D01*
X10120182Y-11022793D02*
X10120182Y-10975174D01*
X10120182Y-10975174D02*
X10129706Y-10937079D01*
X10129706Y-10937079D02*
X10139229Y-10918031D01*
X10139229Y-10918031D02*
X10148753Y-10908508D01*
X10148753Y-10908508D02*
X10167801Y-10898984D01*
X10358277Y-10898984D02*
X10377325Y-10898984D01*
X10377325Y-10898984D02*
X10396372Y-10908508D01*
X10396372Y-10908508D02*
X10405896Y-10918031D01*
X10405896Y-10918031D02*
X10415420Y-10937079D01*
X10415420Y-10937079D02*
X10424944Y-10975174D01*
X10424944Y-10975174D02*
X10424944Y-11022793D01*
X10424944Y-11022793D02*
X10415420Y-11060889D01*
X10415420Y-11060889D02*
X10405896Y-11079936D01*
X10405896Y-11079936D02*
X10396372Y-11089460D01*
X10396372Y-11089460D02*
X10377325Y-11098984D01*
X10377325Y-11098984D02*
X10358277Y-11098984D01*
X10358277Y-11098984D02*
X10339229Y-11089460D01*
X10339229Y-11089460D02*
X10329706Y-11079936D01*
X10329706Y-11079936D02*
X10320182Y-11060889D01*
X10320182Y-11060889D02*
X10310658Y-11022793D01*
X10310658Y-11022793D02*
X10310658Y-10975174D01*
X10310658Y-10975174D02*
X10320182Y-10937079D01*
X10320182Y-10937079D02*
X10329706Y-10918031D01*
X10329706Y-10918031D02*
X10339229Y-10908508D01*
X10339229Y-10908508D02*
X10358277Y-10898984D01*
X10501134Y-10898984D02*
X10501134Y-10937079D01*
X10577325Y-10898984D02*
X10577325Y-10937079D01*
X10872563Y-11175174D02*
X10863039Y-11165650D01*
X10863039Y-11165650D02*
X10843991Y-11137079D01*
X10843991Y-11137079D02*
X10834468Y-11118031D01*
X10834468Y-11118031D02*
X10824944Y-11089460D01*
X10824944Y-11089460D02*
X10815420Y-11041841D01*
X10815420Y-11041841D02*
X10815420Y-11003746D01*
X10815420Y-11003746D02*
X10824944Y-10956127D01*
X10824944Y-10956127D02*
X10834468Y-10927555D01*
X10834468Y-10927555D02*
X10843991Y-10908508D01*
X10843991Y-10908508D02*
X10863039Y-10879936D01*
X10863039Y-10879936D02*
X10872563Y-10870412D01*
X10929706Y-10898984D02*
X11053515Y-10898984D01*
X11053515Y-10898984D02*
X10986849Y-10975174D01*
X10986849Y-10975174D02*
X11015420Y-10975174D01*
X11015420Y-10975174D02*
X11034468Y-10984698D01*
X11034468Y-10984698D02*
X11043991Y-10994222D01*
X11043991Y-10994222D02*
X11053515Y-11013270D01*
X11053515Y-11013270D02*
X11053515Y-11060889D01*
X11053515Y-11060889D02*
X11043991Y-11079936D01*
X11043991Y-11079936D02*
X11034468Y-11089460D01*
X11034468Y-11089460D02*
X11015420Y-11098984D01*
X11015420Y-11098984D02*
X10958277Y-11098984D01*
X10958277Y-11098984D02*
X10939230Y-11089460D01*
X10939230Y-11089460D02*
X10929706Y-11079936D01*
X11177325Y-10898984D02*
X11196372Y-10898984D01*
X11196372Y-10898984D02*
X11215420Y-10908508D01*
X11215420Y-10908508D02*
X11224944Y-10918031D01*
X11224944Y-10918031D02*
X11234468Y-10937079D01*
X11234468Y-10937079D02*
X11243991Y-10975174D01*
X11243991Y-10975174D02*
X11243991Y-11022793D01*
X11243991Y-11022793D02*
X11234468Y-11060889D01*
X11234468Y-11060889D02*
X11224944Y-11079936D01*
X11224944Y-11079936D02*
X11215420Y-11089460D01*
X11215420Y-11089460D02*
X11196372Y-11098984D01*
X11196372Y-11098984D02*
X11177325Y-11098984D01*
X11177325Y-11098984D02*
X11158277Y-11089460D01*
X11158277Y-11089460D02*
X11148753Y-11079936D01*
X11148753Y-11079936D02*
X11139230Y-11060889D01*
X11139230Y-11060889D02*
X11129706Y-11022793D01*
X11129706Y-11022793D02*
X11129706Y-10975174D01*
X11129706Y-10975174D02*
X11139230Y-10937079D01*
X11139230Y-10937079D02*
X11148753Y-10918031D01*
X11148753Y-10918031D02*
X11158277Y-10908508D01*
X11158277Y-10908508D02*
X11177325Y-10898984D01*
X11482087Y-11098984D02*
X11482087Y-10898984D01*
X11567801Y-11098984D02*
X11567801Y-10994222D01*
X11567801Y-10994222D02*
X11558277Y-10975174D01*
X11558277Y-10975174D02*
X11539230Y-10965650D01*
X11539230Y-10965650D02*
X11510658Y-10965650D01*
X11510658Y-10965650D02*
X11491610Y-10975174D01*
X11491610Y-10975174D02*
X11482087Y-10984698D01*
X11691610Y-11098984D02*
X11672563Y-11089460D01*
X11672563Y-11089460D02*
X11663039Y-11079936D01*
X11663039Y-11079936D02*
X11653515Y-11060889D01*
X11653515Y-11060889D02*
X11653515Y-11003746D01*
X11653515Y-11003746D02*
X11663039Y-10984698D01*
X11663039Y-10984698D02*
X11672563Y-10975174D01*
X11672563Y-10975174D02*
X11691610Y-10965650D01*
X11691610Y-10965650D02*
X11720182Y-10965650D01*
X11720182Y-10965650D02*
X11739230Y-10975174D01*
X11739230Y-10975174D02*
X11748753Y-10984698D01*
X11748753Y-10984698D02*
X11758277Y-11003746D01*
X11758277Y-11003746D02*
X11758277Y-11060889D01*
X11758277Y-11060889D02*
X11748753Y-11079936D01*
X11748753Y-11079936D02*
X11739230Y-11089460D01*
X11739230Y-11089460D02*
X11720182Y-11098984D01*
X11720182Y-11098984D02*
X11691610Y-11098984D01*
X11872563Y-11098984D02*
X11853515Y-11089460D01*
X11853515Y-11089460D02*
X11843991Y-11070412D01*
X11843991Y-11070412D02*
X11843991Y-10898984D01*
X12024944Y-11089460D02*
X12005896Y-11098984D01*
X12005896Y-11098984D02*
X11967801Y-11098984D01*
X11967801Y-11098984D02*
X11948753Y-11089460D01*
X11948753Y-11089460D02*
X11939230Y-11070412D01*
X11939230Y-11070412D02*
X11939230Y-10994222D01*
X11939230Y-10994222D02*
X11948753Y-10975174D01*
X11948753Y-10975174D02*
X11967801Y-10965650D01*
X11967801Y-10965650D02*
X12005896Y-10965650D01*
X12005896Y-10965650D02*
X12024944Y-10975174D01*
X12024944Y-10975174D02*
X12034468Y-10994222D01*
X12034468Y-10994222D02*
X12034468Y-11013270D01*
X12034468Y-11013270D02*
X11939230Y-11032317D01*
X12110658Y-11089460D02*
X12129706Y-11098984D01*
X12129706Y-11098984D02*
X12167801Y-11098984D01*
X12167801Y-11098984D02*
X12186849Y-11089460D01*
X12186849Y-11089460D02*
X12196372Y-11070412D01*
X12196372Y-11070412D02*
X12196372Y-11060889D01*
X12196372Y-11060889D02*
X12186849Y-11041841D01*
X12186849Y-11041841D02*
X12167801Y-11032317D01*
X12167801Y-11032317D02*
X12139230Y-11032317D01*
X12139230Y-11032317D02*
X12120182Y-11022793D01*
X12120182Y-11022793D02*
X12110658Y-11003746D01*
X12110658Y-11003746D02*
X12110658Y-10994222D01*
X12110658Y-10994222D02*
X12120182Y-10975174D01*
X12120182Y-10975174D02*
X12139230Y-10965650D01*
X12139230Y-10965650D02*
X12167801Y-10965650D01*
X12167801Y-10965650D02*
X12186849Y-10975174D01*
X12263039Y-11175174D02*
X12272563Y-11165650D01*
X12272563Y-11165650D02*
X12291611Y-11137079D01*
X12291611Y-11137079D02*
X12301134Y-11118031D01*
X12301134Y-11118031D02*
X12310658Y-11089460D01*
X12310658Y-11089460D02*
X12320182Y-11041841D01*
X12320182Y-11041841D02*
X12320182Y-11003746D01*
X12320182Y-11003746D02*
X12310658Y-10956127D01*
X12310658Y-10956127D02*
X12301134Y-10927555D01*
X12301134Y-10927555D02*
X12291611Y-10908508D01*
X12291611Y-10908508D02*
X12272563Y-10879936D01*
X12272563Y-10879936D02*
X12263039Y-10870412D01*
D10*
X7297500Y-11271500D02*
G75*
G03*
X7197500Y-11271500I-50000J0D01*
G01*
X7197500Y-11271500D02*
G75*
G03*
X7297500Y-11271500I50000J0D01*
G01*
D11*
X7663039Y-11362984D02*
X7548753Y-11362984D01*
X7605896Y-11362984D02*
X7605896Y-11162984D01*
X7605896Y-11162984D02*
X7586848Y-11191555D01*
X7586848Y-11191555D02*
X7567801Y-11210603D01*
X7567801Y-11210603D02*
X7548753Y-11220127D01*
X7748753Y-11343936D02*
X7758277Y-11353460D01*
X7758277Y-11353460D02*
X7748753Y-11362984D01*
X7748753Y-11362984D02*
X7739229Y-11353460D01*
X7739229Y-11353460D02*
X7748753Y-11343936D01*
X7748753Y-11343936D02*
X7748753Y-11362984D01*
X7882086Y-11162984D02*
X7901134Y-11162984D01*
X7901134Y-11162984D02*
X7920182Y-11172508D01*
X7920182Y-11172508D02*
X7929705Y-11182031D01*
X7929705Y-11182031D02*
X7939229Y-11201079D01*
X7939229Y-11201079D02*
X7948753Y-11239174D01*
X7948753Y-11239174D02*
X7948753Y-11286793D01*
X7948753Y-11286793D02*
X7939229Y-11324888D01*
X7939229Y-11324888D02*
X7929705Y-11343936D01*
X7929705Y-11343936D02*
X7920182Y-11353460D01*
X7920182Y-11353460D02*
X7901134Y-11362984D01*
X7901134Y-11362984D02*
X7882086Y-11362984D01*
X7882086Y-11362984D02*
X7863039Y-11353460D01*
X7863039Y-11353460D02*
X7853515Y-11343936D01*
X7853515Y-11343936D02*
X7843991Y-11324888D01*
X7843991Y-11324888D02*
X7834467Y-11286793D01*
X7834467Y-11286793D02*
X7834467Y-11239174D01*
X7834467Y-11239174D02*
X7843991Y-11201079D01*
X7843991Y-11201079D02*
X7853515Y-11182031D01*
X7853515Y-11182031D02*
X7863039Y-11172508D01*
X7863039Y-11172508D02*
X7882086Y-11162984D01*
X8072562Y-11162984D02*
X8091610Y-11162984D01*
X8091610Y-11162984D02*
X8110658Y-11172508D01*
X8110658Y-11172508D02*
X8120182Y-11182031D01*
X8120182Y-11182031D02*
X8129705Y-11201079D01*
X8129705Y-11201079D02*
X8139229Y-11239174D01*
X8139229Y-11239174D02*
X8139229Y-11286793D01*
X8139229Y-11286793D02*
X8129705Y-11324888D01*
X8129705Y-11324888D02*
X8120182Y-11343936D01*
X8120182Y-11343936D02*
X8110658Y-11353460D01*
X8110658Y-11353460D02*
X8091610Y-11362984D01*
X8091610Y-11362984D02*
X8072562Y-11362984D01*
X8072562Y-11362984D02*
X8053515Y-11353460D01*
X8053515Y-11353460D02*
X8043991Y-11343936D01*
X8043991Y-11343936D02*
X8034467Y-11324888D01*
X8034467Y-11324888D02*
X8024943Y-11286793D01*
X8024943Y-11286793D02*
X8024943Y-11239174D01*
X8024943Y-11239174D02*
X8034467Y-11201079D01*
X8034467Y-11201079D02*
X8043991Y-11182031D01*
X8043991Y-11182031D02*
X8053515Y-11172508D01*
X8053515Y-11172508D02*
X8072562Y-11162984D01*
X8263039Y-11162984D02*
X8282086Y-11162984D01*
X8282086Y-11162984D02*
X8301134Y-11172508D01*
X8301134Y-11172508D02*
X8310658Y-11182031D01*
X8310658Y-11182031D02*
X8320182Y-11201079D01*
X8320182Y-11201079D02*
X8329705Y-11239174D01*
X8329705Y-11239174D02*
X8329705Y-11286793D01*
X8329705Y-11286793D02*
X8320182Y-11324888D01*
X8320182Y-11324888D02*
X8310658Y-11343936D01*
X8310658Y-11343936D02*
X8301134Y-11353460D01*
X8301134Y-11353460D02*
X8282086Y-11362984D01*
X8282086Y-11362984D02*
X8263039Y-11362984D01*
X8263039Y-11362984D02*
X8243991Y-11353460D01*
X8243991Y-11353460D02*
X8234467Y-11343936D01*
X8234467Y-11343936D02*
X8224943Y-11324888D01*
X8224943Y-11324888D02*
X8215420Y-11286793D01*
X8215420Y-11286793D02*
X8215420Y-11239174D01*
X8215420Y-11239174D02*
X8224943Y-11201079D01*
X8224943Y-11201079D02*
X8234467Y-11182031D01*
X8234467Y-11182031D02*
X8243991Y-11172508D01*
X8243991Y-11172508D02*
X8263039Y-11162984D01*
X8415420Y-11362984D02*
X8415420Y-11229650D01*
X8415420Y-11248698D02*
X8424944Y-11239174D01*
X8424944Y-11239174D02*
X8443991Y-11229650D01*
X8443991Y-11229650D02*
X8472563Y-11229650D01*
X8472563Y-11229650D02*
X8491610Y-11239174D01*
X8491610Y-11239174D02*
X8501134Y-11258222D01*
X8501134Y-11258222D02*
X8501134Y-11362984D01*
X8501134Y-11258222D02*
X8510658Y-11239174D01*
X8510658Y-11239174D02*
X8529705Y-11229650D01*
X8529705Y-11229650D02*
X8558277Y-11229650D01*
X8558277Y-11229650D02*
X8577325Y-11239174D01*
X8577325Y-11239174D02*
X8586848Y-11258222D01*
X8586848Y-11258222D02*
X8586848Y-11362984D01*
X8682086Y-11362984D02*
X8682086Y-11229650D01*
X8682086Y-11248698D02*
X8691610Y-11239174D01*
X8691610Y-11239174D02*
X8710658Y-11229650D01*
X8710658Y-11229650D02*
X8739229Y-11229650D01*
X8739229Y-11229650D02*
X8758277Y-11239174D01*
X8758277Y-11239174D02*
X8767801Y-11258222D01*
X8767801Y-11258222D02*
X8767801Y-11362984D01*
X8767801Y-11258222D02*
X8777325Y-11239174D01*
X8777325Y-11239174D02*
X8796372Y-11229650D01*
X8796372Y-11229650D02*
X8824944Y-11229650D01*
X8824944Y-11229650D02*
X8843991Y-11239174D01*
X8843991Y-11239174D02*
X8853515Y-11258222D01*
X8853515Y-11258222D02*
X8853515Y-11362984D01*
X9243991Y-11153460D02*
X9072563Y-11410603D01*
X9501134Y-11162984D02*
X9520182Y-11162984D01*
X9520182Y-11162984D02*
X9539229Y-11172508D01*
X9539229Y-11172508D02*
X9548753Y-11182031D01*
X9548753Y-11182031D02*
X9558277Y-11201079D01*
X9558277Y-11201079D02*
X9567801Y-11239174D01*
X9567801Y-11239174D02*
X9567801Y-11286793D01*
X9567801Y-11286793D02*
X9558277Y-11324888D01*
X9558277Y-11324888D02*
X9548753Y-11343936D01*
X9548753Y-11343936D02*
X9539229Y-11353460D01*
X9539229Y-11353460D02*
X9520182Y-11362984D01*
X9520182Y-11362984D02*
X9501134Y-11362984D01*
X9501134Y-11362984D02*
X9482087Y-11353460D01*
X9482087Y-11353460D02*
X9472563Y-11343936D01*
X9472563Y-11343936D02*
X9463039Y-11324888D01*
X9463039Y-11324888D02*
X9453515Y-11286793D01*
X9453515Y-11286793D02*
X9453515Y-11239174D01*
X9453515Y-11239174D02*
X9463039Y-11201079D01*
X9463039Y-11201079D02*
X9472563Y-11182031D01*
X9472563Y-11182031D02*
X9482087Y-11172508D01*
X9482087Y-11172508D02*
X9501134Y-11162984D01*
X9653515Y-11343936D02*
X9663039Y-11353460D01*
X9663039Y-11353460D02*
X9653515Y-11362984D01*
X9653515Y-11362984D02*
X9643991Y-11353460D01*
X9643991Y-11353460D02*
X9653515Y-11343936D01*
X9653515Y-11343936D02*
X9653515Y-11362984D01*
X9786848Y-11162984D02*
X9805896Y-11162984D01*
X9805896Y-11162984D02*
X9824944Y-11172508D01*
X9824944Y-11172508D02*
X9834468Y-11182031D01*
X9834468Y-11182031D02*
X9843991Y-11201079D01*
X9843991Y-11201079D02*
X9853515Y-11239174D01*
X9853515Y-11239174D02*
X9853515Y-11286793D01*
X9853515Y-11286793D02*
X9843991Y-11324888D01*
X9843991Y-11324888D02*
X9834468Y-11343936D01*
X9834468Y-11343936D02*
X9824944Y-11353460D01*
X9824944Y-11353460D02*
X9805896Y-11362984D01*
X9805896Y-11362984D02*
X9786848Y-11362984D01*
X9786848Y-11362984D02*
X9767801Y-11353460D01*
X9767801Y-11353460D02*
X9758277Y-11343936D01*
X9758277Y-11343936D02*
X9748753Y-11324888D01*
X9748753Y-11324888D02*
X9739229Y-11286793D01*
X9739229Y-11286793D02*
X9739229Y-11239174D01*
X9739229Y-11239174D02*
X9748753Y-11201079D01*
X9748753Y-11201079D02*
X9758277Y-11182031D01*
X9758277Y-11182031D02*
X9767801Y-11172508D01*
X9767801Y-11172508D02*
X9786848Y-11162984D01*
X9920182Y-11162984D02*
X10043991Y-11162984D01*
X10043991Y-11162984D02*
X9977325Y-11239174D01*
X9977325Y-11239174D02*
X10005896Y-11239174D01*
X10005896Y-11239174D02*
X10024944Y-11248698D01*
X10024944Y-11248698D02*
X10034468Y-11258222D01*
X10034468Y-11258222D02*
X10043991Y-11277269D01*
X10043991Y-11277269D02*
X10043991Y-11324888D01*
X10043991Y-11324888D02*
X10034468Y-11343936D01*
X10034468Y-11343936D02*
X10024944Y-11353460D01*
X10024944Y-11353460D02*
X10005896Y-11362984D01*
X10005896Y-11362984D02*
X9948753Y-11362984D01*
X9948753Y-11362984D02*
X9929706Y-11353460D01*
X9929706Y-11353460D02*
X9920182Y-11343936D01*
X10139229Y-11362984D02*
X10177325Y-11362984D01*
X10177325Y-11362984D02*
X10196372Y-11353460D01*
X10196372Y-11353460D02*
X10205896Y-11343936D01*
X10205896Y-11343936D02*
X10224944Y-11315365D01*
X10224944Y-11315365D02*
X10234468Y-11277269D01*
X10234468Y-11277269D02*
X10234468Y-11201079D01*
X10234468Y-11201079D02*
X10224944Y-11182031D01*
X10224944Y-11182031D02*
X10215420Y-11172508D01*
X10215420Y-11172508D02*
X10196372Y-11162984D01*
X10196372Y-11162984D02*
X10158277Y-11162984D01*
X10158277Y-11162984D02*
X10139229Y-11172508D01*
X10139229Y-11172508D02*
X10129706Y-11182031D01*
X10129706Y-11182031D02*
X10120182Y-11201079D01*
X10120182Y-11201079D02*
X10120182Y-11248698D01*
X10120182Y-11248698D02*
X10129706Y-11267746D01*
X10129706Y-11267746D02*
X10139229Y-11277269D01*
X10139229Y-11277269D02*
X10158277Y-11286793D01*
X10158277Y-11286793D02*
X10196372Y-11286793D01*
X10196372Y-11286793D02*
X10215420Y-11277269D01*
X10215420Y-11277269D02*
X10224944Y-11267746D01*
X10224944Y-11267746D02*
X10234468Y-11248698D01*
X10405896Y-11229650D02*
X10405896Y-11362984D01*
X10358277Y-11153460D02*
X10310658Y-11296317D01*
X10310658Y-11296317D02*
X10434468Y-11296317D01*
X10501134Y-11162984D02*
X10501134Y-11201079D01*
X10577325Y-11162984D02*
X10577325Y-11201079D01*
X10872563Y-11439174D02*
X10863039Y-11429650D01*
X10863039Y-11429650D02*
X10843991Y-11401079D01*
X10843991Y-11401079D02*
X10834468Y-11382031D01*
X10834468Y-11382031D02*
X10824944Y-11353460D01*
X10824944Y-11353460D02*
X10815420Y-11305841D01*
X10815420Y-11305841D02*
X10815420Y-11267746D01*
X10815420Y-11267746D02*
X10824944Y-11220127D01*
X10824944Y-11220127D02*
X10834468Y-11191555D01*
X10834468Y-11191555D02*
X10843991Y-11172508D01*
X10843991Y-11172508D02*
X10863039Y-11143936D01*
X10863039Y-11143936D02*
X10872563Y-11134412D01*
X11034468Y-11229650D02*
X11034468Y-11362984D01*
X10986849Y-11153460D02*
X10939230Y-11296317D01*
X10939230Y-11296317D02*
X11063039Y-11296317D01*
X11291610Y-11362984D02*
X11291610Y-11162984D01*
X11377325Y-11362984D02*
X11377325Y-11258222D01*
X11377325Y-11258222D02*
X11367801Y-11239174D01*
X11367801Y-11239174D02*
X11348753Y-11229650D01*
X11348753Y-11229650D02*
X11320182Y-11229650D01*
X11320182Y-11229650D02*
X11301134Y-11239174D01*
X11301134Y-11239174D02*
X11291610Y-11248698D01*
X11501134Y-11362984D02*
X11482087Y-11353460D01*
X11482087Y-11353460D02*
X11472563Y-11343936D01*
X11472563Y-11343936D02*
X11463039Y-11324888D01*
X11463039Y-11324888D02*
X11463039Y-11267746D01*
X11463039Y-11267746D02*
X11472563Y-11248698D01*
X11472563Y-11248698D02*
X11482087Y-11239174D01*
X11482087Y-11239174D02*
X11501134Y-11229650D01*
X11501134Y-11229650D02*
X11529706Y-11229650D01*
X11529706Y-11229650D02*
X11548753Y-11239174D01*
X11548753Y-11239174D02*
X11558277Y-11248698D01*
X11558277Y-11248698D02*
X11567801Y-11267746D01*
X11567801Y-11267746D02*
X11567801Y-11324888D01*
X11567801Y-11324888D02*
X11558277Y-11343936D01*
X11558277Y-11343936D02*
X11548753Y-11353460D01*
X11548753Y-11353460D02*
X11529706Y-11362984D01*
X11529706Y-11362984D02*
X11501134Y-11362984D01*
X11682087Y-11362984D02*
X11663039Y-11353460D01*
X11663039Y-11353460D02*
X11653515Y-11334412D01*
X11653515Y-11334412D02*
X11653515Y-11162984D01*
X11834468Y-11353460D02*
X11815420Y-11362984D01*
X11815420Y-11362984D02*
X11777325Y-11362984D01*
X11777325Y-11362984D02*
X11758277Y-11353460D01*
X11758277Y-11353460D02*
X11748753Y-11334412D01*
X11748753Y-11334412D02*
X11748753Y-11258222D01*
X11748753Y-11258222D02*
X11758277Y-11239174D01*
X11758277Y-11239174D02*
X11777325Y-11229650D01*
X11777325Y-11229650D02*
X11815420Y-11229650D01*
X11815420Y-11229650D02*
X11834468Y-11239174D01*
X11834468Y-11239174D02*
X11843991Y-11258222D01*
X11843991Y-11258222D02*
X11843991Y-11277269D01*
X11843991Y-11277269D02*
X11748753Y-11296317D01*
X11920182Y-11353460D02*
X11939230Y-11362984D01*
X11939230Y-11362984D02*
X11977325Y-11362984D01*
X11977325Y-11362984D02*
X11996372Y-11353460D01*
X11996372Y-11353460D02*
X12005896Y-11334412D01*
X12005896Y-11334412D02*
X12005896Y-11324888D01*
X12005896Y-11324888D02*
X11996372Y-11305841D01*
X11996372Y-11305841D02*
X11977325Y-11296317D01*
X11977325Y-11296317D02*
X11948753Y-11296317D01*
X11948753Y-11296317D02*
X11929706Y-11286793D01*
X11929706Y-11286793D02*
X11920182Y-11267746D01*
X11920182Y-11267746D02*
X11920182Y-11258222D01*
X11920182Y-11258222D02*
X11929706Y-11239174D01*
X11929706Y-11239174D02*
X11948753Y-11229650D01*
X11948753Y-11229650D02*
X11977325Y-11229650D01*
X11977325Y-11229650D02*
X11996372Y-11239174D01*
X12072563Y-11439174D02*
X12082087Y-11429650D01*
X12082087Y-11429650D02*
X12101134Y-11401079D01*
X12101134Y-11401079D02*
X12110658Y-11382031D01*
X12110658Y-11382031D02*
X12120182Y-11353460D01*
X12120182Y-11353460D02*
X12129706Y-11305841D01*
X12129706Y-11305841D02*
X12129706Y-11267746D01*
X12129706Y-11267746D02*
X12120182Y-11220127D01*
X12120182Y-11220127D02*
X12110658Y-11191555D01*
X12110658Y-11191555D02*
X12101134Y-11172508D01*
X12101134Y-11172508D02*
X12082087Y-11143936D01*
X12082087Y-11143936D02*
X12072563Y-11134412D01*
D12*
X7242500Y-11480500D02*
X7242500Y-11590500D01*
X7187500Y-11535500D02*
X7297500Y-11535500D01*
D11*
X7663039Y-11626984D02*
X7548753Y-11626984D01*
X7605896Y-11626984D02*
X7605896Y-11426984D01*
X7605896Y-11426984D02*
X7586848Y-11455555D01*
X7586848Y-11455555D02*
X7567801Y-11474603D01*
X7567801Y-11474603D02*
X7548753Y-11484127D01*
X7748753Y-11607936D02*
X7758277Y-11617460D01*
X7758277Y-11617460D02*
X7748753Y-11626984D01*
X7748753Y-11626984D02*
X7739229Y-11617460D01*
X7739229Y-11617460D02*
X7748753Y-11607936D01*
X7748753Y-11607936D02*
X7748753Y-11626984D01*
X7948753Y-11626984D02*
X7834467Y-11626984D01*
X7891610Y-11626984D02*
X7891610Y-11426984D01*
X7891610Y-11426984D02*
X7872562Y-11455555D01*
X7872562Y-11455555D02*
X7853515Y-11474603D01*
X7853515Y-11474603D02*
X7834467Y-11484127D01*
X8072562Y-11426984D02*
X8091610Y-11426984D01*
X8091610Y-11426984D02*
X8110658Y-11436508D01*
X8110658Y-11436508D02*
X8120182Y-11446031D01*
X8120182Y-11446031D02*
X8129705Y-11465079D01*
X8129705Y-11465079D02*
X8139229Y-11503174D01*
X8139229Y-11503174D02*
X8139229Y-11550793D01*
X8139229Y-11550793D02*
X8129705Y-11588888D01*
X8129705Y-11588888D02*
X8120182Y-11607936D01*
X8120182Y-11607936D02*
X8110658Y-11617460D01*
X8110658Y-11617460D02*
X8091610Y-11626984D01*
X8091610Y-11626984D02*
X8072562Y-11626984D01*
X8072562Y-11626984D02*
X8053515Y-11617460D01*
X8053515Y-11617460D02*
X8043991Y-11607936D01*
X8043991Y-11607936D02*
X8034467Y-11588888D01*
X8034467Y-11588888D02*
X8024943Y-11550793D01*
X8024943Y-11550793D02*
X8024943Y-11503174D01*
X8024943Y-11503174D02*
X8034467Y-11465079D01*
X8034467Y-11465079D02*
X8043991Y-11446031D01*
X8043991Y-11446031D02*
X8053515Y-11436508D01*
X8053515Y-11436508D02*
X8072562Y-11426984D01*
X8263039Y-11426984D02*
X8282086Y-11426984D01*
X8282086Y-11426984D02*
X8301134Y-11436508D01*
X8301134Y-11436508D02*
X8310658Y-11446031D01*
X8310658Y-11446031D02*
X8320182Y-11465079D01*
X8320182Y-11465079D02*
X8329705Y-11503174D01*
X8329705Y-11503174D02*
X8329705Y-11550793D01*
X8329705Y-11550793D02*
X8320182Y-11588888D01*
X8320182Y-11588888D02*
X8310658Y-11607936D01*
X8310658Y-11607936D02*
X8301134Y-11617460D01*
X8301134Y-11617460D02*
X8282086Y-11626984D01*
X8282086Y-11626984D02*
X8263039Y-11626984D01*
X8263039Y-11626984D02*
X8243991Y-11617460D01*
X8243991Y-11617460D02*
X8234467Y-11607936D01*
X8234467Y-11607936D02*
X8224943Y-11588888D01*
X8224943Y-11588888D02*
X8215420Y-11550793D01*
X8215420Y-11550793D02*
X8215420Y-11503174D01*
X8215420Y-11503174D02*
X8224943Y-11465079D01*
X8224943Y-11465079D02*
X8234467Y-11446031D01*
X8234467Y-11446031D02*
X8243991Y-11436508D01*
X8243991Y-11436508D02*
X8263039Y-11426984D01*
X8415420Y-11626984D02*
X8415420Y-11493650D01*
X8415420Y-11512698D02*
X8424944Y-11503174D01*
X8424944Y-11503174D02*
X8443991Y-11493650D01*
X8443991Y-11493650D02*
X8472563Y-11493650D01*
X8472563Y-11493650D02*
X8491610Y-11503174D01*
X8491610Y-11503174D02*
X8501134Y-11522222D01*
X8501134Y-11522222D02*
X8501134Y-11626984D01*
X8501134Y-11522222D02*
X8510658Y-11503174D01*
X8510658Y-11503174D02*
X8529705Y-11493650D01*
X8529705Y-11493650D02*
X8558277Y-11493650D01*
X8558277Y-11493650D02*
X8577325Y-11503174D01*
X8577325Y-11503174D02*
X8586848Y-11522222D01*
X8586848Y-11522222D02*
X8586848Y-11626984D01*
X8682086Y-11626984D02*
X8682086Y-11493650D01*
X8682086Y-11512698D02*
X8691610Y-11503174D01*
X8691610Y-11503174D02*
X8710658Y-11493650D01*
X8710658Y-11493650D02*
X8739229Y-11493650D01*
X8739229Y-11493650D02*
X8758277Y-11503174D01*
X8758277Y-11503174D02*
X8767801Y-11522222D01*
X8767801Y-11522222D02*
X8767801Y-11626984D01*
X8767801Y-11522222D02*
X8777325Y-11503174D01*
X8777325Y-11503174D02*
X8796372Y-11493650D01*
X8796372Y-11493650D02*
X8824944Y-11493650D01*
X8824944Y-11493650D02*
X8843991Y-11503174D01*
X8843991Y-11503174D02*
X8853515Y-11522222D01*
X8853515Y-11522222D02*
X8853515Y-11626984D01*
X9243991Y-11417460D02*
X9072563Y-11674603D01*
X9501134Y-11426984D02*
X9520182Y-11426984D01*
X9520182Y-11426984D02*
X9539229Y-11436508D01*
X9539229Y-11436508D02*
X9548753Y-11446031D01*
X9548753Y-11446031D02*
X9558277Y-11465079D01*
X9558277Y-11465079D02*
X9567801Y-11503174D01*
X9567801Y-11503174D02*
X9567801Y-11550793D01*
X9567801Y-11550793D02*
X9558277Y-11588888D01*
X9558277Y-11588888D02*
X9548753Y-11607936D01*
X9548753Y-11607936D02*
X9539229Y-11617460D01*
X9539229Y-11617460D02*
X9520182Y-11626984D01*
X9520182Y-11626984D02*
X9501134Y-11626984D01*
X9501134Y-11626984D02*
X9482087Y-11617460D01*
X9482087Y-11617460D02*
X9472563Y-11607936D01*
X9472563Y-11607936D02*
X9463039Y-11588888D01*
X9463039Y-11588888D02*
X9453515Y-11550793D01*
X9453515Y-11550793D02*
X9453515Y-11503174D01*
X9453515Y-11503174D02*
X9463039Y-11465079D01*
X9463039Y-11465079D02*
X9472563Y-11446031D01*
X9472563Y-11446031D02*
X9482087Y-11436508D01*
X9482087Y-11436508D02*
X9501134Y-11426984D01*
X9653515Y-11607936D02*
X9663039Y-11617460D01*
X9663039Y-11617460D02*
X9653515Y-11626984D01*
X9653515Y-11626984D02*
X9643991Y-11617460D01*
X9643991Y-11617460D02*
X9653515Y-11607936D01*
X9653515Y-11607936D02*
X9653515Y-11626984D01*
X9786848Y-11426984D02*
X9805896Y-11426984D01*
X9805896Y-11426984D02*
X9824944Y-11436508D01*
X9824944Y-11436508D02*
X9834468Y-11446031D01*
X9834468Y-11446031D02*
X9843991Y-11465079D01*
X9843991Y-11465079D02*
X9853515Y-11503174D01*
X9853515Y-11503174D02*
X9853515Y-11550793D01*
X9853515Y-11550793D02*
X9843991Y-11588888D01*
X9843991Y-11588888D02*
X9834468Y-11607936D01*
X9834468Y-11607936D02*
X9824944Y-11617460D01*
X9824944Y-11617460D02*
X9805896Y-11626984D01*
X9805896Y-11626984D02*
X9786848Y-11626984D01*
X9786848Y-11626984D02*
X9767801Y-11617460D01*
X9767801Y-11617460D02*
X9758277Y-11607936D01*
X9758277Y-11607936D02*
X9748753Y-11588888D01*
X9748753Y-11588888D02*
X9739229Y-11550793D01*
X9739229Y-11550793D02*
X9739229Y-11503174D01*
X9739229Y-11503174D02*
X9748753Y-11465079D01*
X9748753Y-11465079D02*
X9758277Y-11446031D01*
X9758277Y-11446031D02*
X9767801Y-11436508D01*
X9767801Y-11436508D02*
X9786848Y-11426984D01*
X10024944Y-11493650D02*
X10024944Y-11626984D01*
X9977325Y-11417460D02*
X9929706Y-11560317D01*
X9929706Y-11560317D02*
X10053515Y-11560317D01*
X10110658Y-11426984D02*
X10234468Y-11426984D01*
X10234468Y-11426984D02*
X10167801Y-11503174D01*
X10167801Y-11503174D02*
X10196372Y-11503174D01*
X10196372Y-11503174D02*
X10215420Y-11512698D01*
X10215420Y-11512698D02*
X10224944Y-11522222D01*
X10224944Y-11522222D02*
X10234468Y-11541269D01*
X10234468Y-11541269D02*
X10234468Y-11588888D01*
X10234468Y-11588888D02*
X10224944Y-11607936D01*
X10224944Y-11607936D02*
X10215420Y-11617460D01*
X10215420Y-11617460D02*
X10196372Y-11626984D01*
X10196372Y-11626984D02*
X10139229Y-11626984D01*
X10139229Y-11626984D02*
X10120182Y-11617460D01*
X10120182Y-11617460D02*
X10110658Y-11607936D01*
X10301134Y-11426984D02*
X10424944Y-11426984D01*
X10424944Y-11426984D02*
X10358277Y-11503174D01*
X10358277Y-11503174D02*
X10386849Y-11503174D01*
X10386849Y-11503174D02*
X10405896Y-11512698D01*
X10405896Y-11512698D02*
X10415420Y-11522222D01*
X10415420Y-11522222D02*
X10424944Y-11541269D01*
X10424944Y-11541269D02*
X10424944Y-11588888D01*
X10424944Y-11588888D02*
X10415420Y-11607936D01*
X10415420Y-11607936D02*
X10405896Y-11617460D01*
X10405896Y-11617460D02*
X10386849Y-11626984D01*
X10386849Y-11626984D02*
X10329706Y-11626984D01*
X10329706Y-11626984D02*
X10310658Y-11617460D01*
X10310658Y-11617460D02*
X10301134Y-11607936D01*
X10501134Y-11426984D02*
X10501134Y-11465079D01*
X10577325Y-11426984D02*
X10577325Y-11465079D01*
X10872563Y-11703174D02*
X10863039Y-11693650D01*
X10863039Y-11693650D02*
X10843991Y-11665079D01*
X10843991Y-11665079D02*
X10834468Y-11646031D01*
X10834468Y-11646031D02*
X10824944Y-11617460D01*
X10824944Y-11617460D02*
X10815420Y-11569841D01*
X10815420Y-11569841D02*
X10815420Y-11531746D01*
X10815420Y-11531746D02*
X10824944Y-11484127D01*
X10824944Y-11484127D02*
X10834468Y-11455555D01*
X10834468Y-11455555D02*
X10843991Y-11436508D01*
X10843991Y-11436508D02*
X10863039Y-11407936D01*
X10863039Y-11407936D02*
X10872563Y-11398412D01*
X10977325Y-11512698D02*
X10958277Y-11503174D01*
X10958277Y-11503174D02*
X10948753Y-11493650D01*
X10948753Y-11493650D02*
X10939230Y-11474603D01*
X10939230Y-11474603D02*
X10939230Y-11465079D01*
X10939230Y-11465079D02*
X10948753Y-11446031D01*
X10948753Y-11446031D02*
X10958277Y-11436508D01*
X10958277Y-11436508D02*
X10977325Y-11426984D01*
X10977325Y-11426984D02*
X11015420Y-11426984D01*
X11015420Y-11426984D02*
X11034468Y-11436508D01*
X11034468Y-11436508D02*
X11043991Y-11446031D01*
X11043991Y-11446031D02*
X11053515Y-11465079D01*
X11053515Y-11465079D02*
X11053515Y-11474603D01*
X11053515Y-11474603D02*
X11043991Y-11493650D01*
X11043991Y-11493650D02*
X11034468Y-11503174D01*
X11034468Y-11503174D02*
X11015420Y-11512698D01*
X11015420Y-11512698D02*
X10977325Y-11512698D01*
X10977325Y-11512698D02*
X10958277Y-11522222D01*
X10958277Y-11522222D02*
X10948753Y-11531746D01*
X10948753Y-11531746D02*
X10939230Y-11550793D01*
X10939230Y-11550793D02*
X10939230Y-11588888D01*
X10939230Y-11588888D02*
X10948753Y-11607936D01*
X10948753Y-11607936D02*
X10958277Y-11617460D01*
X10958277Y-11617460D02*
X10977325Y-11626984D01*
X10977325Y-11626984D02*
X11015420Y-11626984D01*
X11015420Y-11626984D02*
X11034468Y-11617460D01*
X11034468Y-11617460D02*
X11043991Y-11607936D01*
X11043991Y-11607936D02*
X11053515Y-11588888D01*
X11053515Y-11588888D02*
X11053515Y-11550793D01*
X11053515Y-11550793D02*
X11043991Y-11531746D01*
X11043991Y-11531746D02*
X11034468Y-11522222D01*
X11034468Y-11522222D02*
X11015420Y-11512698D01*
X11291610Y-11626984D02*
X11291610Y-11426984D01*
X11377325Y-11626984D02*
X11377325Y-11522222D01*
X11377325Y-11522222D02*
X11367801Y-11503174D01*
X11367801Y-11503174D02*
X11348753Y-11493650D01*
X11348753Y-11493650D02*
X11320182Y-11493650D01*
X11320182Y-11493650D02*
X11301134Y-11503174D01*
X11301134Y-11503174D02*
X11291610Y-11512698D01*
X11501134Y-11626984D02*
X11482087Y-11617460D01*
X11482087Y-11617460D02*
X11472563Y-11607936D01*
X11472563Y-11607936D02*
X11463039Y-11588888D01*
X11463039Y-11588888D02*
X11463039Y-11531746D01*
X11463039Y-11531746D02*
X11472563Y-11512698D01*
X11472563Y-11512698D02*
X11482087Y-11503174D01*
X11482087Y-11503174D02*
X11501134Y-11493650D01*
X11501134Y-11493650D02*
X11529706Y-11493650D01*
X11529706Y-11493650D02*
X11548753Y-11503174D01*
X11548753Y-11503174D02*
X11558277Y-11512698D01*
X11558277Y-11512698D02*
X11567801Y-11531746D01*
X11567801Y-11531746D02*
X11567801Y-11588888D01*
X11567801Y-11588888D02*
X11558277Y-11607936D01*
X11558277Y-11607936D02*
X11548753Y-11617460D01*
X11548753Y-11617460D02*
X11529706Y-11626984D01*
X11529706Y-11626984D02*
X11501134Y-11626984D01*
X11682087Y-11626984D02*
X11663039Y-11617460D01*
X11663039Y-11617460D02*
X11653515Y-11598412D01*
X11653515Y-11598412D02*
X11653515Y-11426984D01*
X11834468Y-11617460D02*
X11815420Y-11626984D01*
X11815420Y-11626984D02*
X11777325Y-11626984D01*
X11777325Y-11626984D02*
X11758277Y-11617460D01*
X11758277Y-11617460D02*
X11748753Y-11598412D01*
X11748753Y-11598412D02*
X11748753Y-11522222D01*
X11748753Y-11522222D02*
X11758277Y-11503174D01*
X11758277Y-11503174D02*
X11777325Y-11493650D01*
X11777325Y-11493650D02*
X11815420Y-11493650D01*
X11815420Y-11493650D02*
X11834468Y-11503174D01*
X11834468Y-11503174D02*
X11843991Y-11522222D01*
X11843991Y-11522222D02*
X11843991Y-11541269D01*
X11843991Y-11541269D02*
X11748753Y-11560317D01*
X11920182Y-11617460D02*
X11939230Y-11626984D01*
X11939230Y-11626984D02*
X11977325Y-11626984D01*
X11977325Y-11626984D02*
X11996372Y-11617460D01*
X11996372Y-11617460D02*
X12005896Y-11598412D01*
X12005896Y-11598412D02*
X12005896Y-11588888D01*
X12005896Y-11588888D02*
X11996372Y-11569841D01*
X11996372Y-11569841D02*
X11977325Y-11560317D01*
X11977325Y-11560317D02*
X11948753Y-11560317D01*
X11948753Y-11560317D02*
X11929706Y-11550793D01*
X11929706Y-11550793D02*
X11920182Y-11531746D01*
X11920182Y-11531746D02*
X11920182Y-11522222D01*
X11920182Y-11522222D02*
X11929706Y-11503174D01*
X11929706Y-11503174D02*
X11948753Y-11493650D01*
X11948753Y-11493650D02*
X11977325Y-11493650D01*
X11977325Y-11493650D02*
X11996372Y-11503174D01*
X12072563Y-11703174D02*
X12082087Y-11693650D01*
X12082087Y-11693650D02*
X12101134Y-11665079D01*
X12101134Y-11665079D02*
X12110658Y-11646031D01*
X12110658Y-11646031D02*
X12120182Y-11617460D01*
X12120182Y-11617460D02*
X12129706Y-11569841D01*
X12129706Y-11569841D02*
X12129706Y-11531746D01*
X12129706Y-11531746D02*
X12120182Y-11484127D01*
X12120182Y-11484127D02*
X12110658Y-11455555D01*
X12110658Y-11455555D02*
X12101134Y-11436508D01*
X12101134Y-11436508D02*
X12082087Y-11407936D01*
X12082087Y-11407936D02*
X12072563Y-11398412D01*
M02*
